<?xml version="1.0" encoding="UTF-8"?>
<svg id="Capa_2" data-name="Capa 2" xmlns="http://www.w3.org/2000/svg" viewBox="0 0 64 45.53">
  <defs>
    <style>
      .cls-1 {
        fill: #f4f3ed;
      }

      .cls-2 {
        fill: #1a1a1a;
      }
    </style>
  </defs>
  <g id="Capa_1-2" data-name="Capa 1">
    <g>
      <path class="cls-1" d="M23,0h0s-.04,0-.05,0C10.27,0,0,10.19,0,22.76s10.27,22.76,22.94,22.76c.02,0,.04,0,.05,0h0s36.98,0,36.98,0c2.22,0,4.02-1.78,4.02-3.99V0H23Z"/>
      <g>
        <path class="cls-2" d="M48.84,26.03c1.58,9.24-8.66,12.52-15.39,13.67-6.15,1.05-18.42,1.89-19.56-4.79-.36-2.12.55-4.13,2.63-4.49,4.43-.76,6.31,5.61,17.02,3.78,3.34-.57,9.07-2.2,8.65-4.63-.88-5.19-26.82,3.69-29.28-10.79-1.49-8.75,7.69-11.94,14.51-13.1,9.94-1.7,17.61.43,18.42,5.17.33,1.94-.57,4.04-3.46,4.53-5.38.92-4.87-5.94-14.91-4.23-3.39.58-6.69,1.93-6.34,4.01.98,5.77,25.27-3.47,27.72,10.87Z"/>
        <g>
          <g>
            <path class="cls-2" d="M59.5,18.52c0,.54-.44.99-.99.99s-.99-.44-.99-.99.44-.99.99-.99.99.44.99.99h0ZM57.68,17.69c-.22.22-.35.52-.35.83s.12.61.35.83c.22.22.52.35.83.35s.61-.12.83-.35c.22-.22.35-.52.35-.83s-.12-.61-.35-.83c-.22-.22-.52-.35-.83-.35s-.61.12-.83.35h0Z"/>
            <path class="cls-2" d="M58.46,18.54v.23h-.45c0-.05,0-.12,0-.19,0-.24.08-.37.23-.37s.23.11.23.33h0ZM58.54,18.25c-.07-.15-.17-.23-.32-.23-.11,0-.2.05-.27.15-.07.1-.1.23-.1.4,0,.11.01.24.04.38h1.28v-.19h-.57v-.24c0-.19.19-.31.57-.37v-.19c-.2.03-.34.07-.43.11-.09.04-.15.1-.2.17h0Z"/>
          </g>
          <g>
            <path class="cls-2" d="M54.05,40.39v-1.3h4.66v-3.78h.98v5.07l-5.64.02Z"/>
            <path class="cls-2" d="M58.43,30.15v2.79s1.26.6,1.26.6v1.24l-5.66-2.78v-1.06l5.66-2.66v1.28l-1.26.59ZM55.41,31.54l2.11,1v-1.98l-2.11.97h0Z"/>
            <path class="cls-2" d="M59.69,24.17v3.28l-5.64-.02v-3.17c0-1.34.7-2.17,1.55-2.17.64,0,1.04.46,1.22.97,0,0,0,0,.02,0,.09-.51.68-1.03,1.3-1.03.96,0,1.55,1.01,1.55,2.14ZM54.95,24.37v1.82h1.51v-1.71c0-.72-.34-1.19-.76-1.19-.4,0-.76.36-.75,1.09ZM57.3,24.4v1.79h1.51v-1.71c0-.72-.31-1.16-.72-1.16s-.79.36-.79,1.09Z"/>
          </g>
        </g>
      </g>
    </g>
  </g>
</svg>