<?xml version="1.0" encoding="UTF-8"?>
<svg id="Capa_2" data-name="Capa 2" xmlns="http://www.w3.org/2000/svg" viewBox="0 0 425.32 161.47">
  <defs>
    <style>
      .cls-1 {
        fill: #132d15;
      }
    </style>
  </defs>
  <g id="Capa_1-2" data-name="Capa 1">
    <g>
      <polygon class="cls-1" points="207.95 27.67 212.66 37.57 221.11 55.34 230.53 55.34 217.37 27.67 230.53 0 256.85 55.34 266.26 55.34 239.95 0 230.53 0 221.11 0 212.66 17.77 204.21 0 194.79 0 185.37 0 159.05 55.34 167.12 55.34 167.12 55.34 194.79 55.34 204.21 55.34 209.72 55.34 206.5 47.5 171.37 47.5 194.79 0 207.95 27.67"/>
      <polygon class="cls-1" points="0 123.49 6.41 123.49 23.19 85.85 16.79 85.85 0 123.49"/>
      <polygon class="cls-1" points="23.19 85.85 33.4 108.73 17.52 108.73 15.25 113.83 35.67 113.83 39.98 123.49 46.39 123.49 29.6 85.85 23.19 85.85"/>
      <polygon class="cls-1" points="32.83 75.92 32.78 75.75 26.57 75.75 20.98 82.99 25.59 82.99 32.83 75.92"/>
      <rect class="cls-1" x="49.19" y="85.85" width="5.1" height="37.64"/>
      <path class="cls-1" d="M76.84,109.44c-.29.73-.63,1.6-1.02,2.61-.38,1.01-.75,2-1.1,2.99-.35.99-.67,1.87-.96,2.63h-.33c-.26-.8-.58-1.73-.96-2.77-.38-1.04-.76-2.05-1.12-3.02-.37-.97-.7-1.78-.99-2.44l-6.09-14.82h-5.49l12.18,28.86h5.05l12.18-28.86h-5.27l-6.09,14.82Z"/>
      <path class="cls-1" d="M118.44,124.09c.8,0,1.56-.08,2.28-.25.71-.16,1.35-.34,1.89-.52v-3.35h-2.47c-.58,0-1.02-.16-1.32-.47-.29-.31-.44-.83-.44-1.56v-14.71c0-2.16-.49-3.91-1.46-5.27-.97-1.35-2.39-2.36-4.28-3.02-1.89-.66-4.24-.99-7.05-.99s-5.23.31-7.24.93c-2.01.62-3.55,1.55-4.61,2.77-1.06,1.23-1.59,2.7-1.59,4.42v.63c0,.16.02.34.05.52h4.99v-.93c0-.77.27-1.47.82-2.11.55-.64,1.41-1.15,2.58-1.54,1.17-.38,2.67-.58,4.5-.58,2.12,0,3.77.2,4.94.6,1.17.4,2,1.03,2.5,1.89.49.86.74,1.97.74,3.32v2.47c-3.18,0-6.14.1-8.86.3-2.73.2-5.1.62-7.13,1.26-2.03.64-3.61,1.61-4.75,2.91-1.14,1.3-1.7,3.03-1.7,5.18,0,1.57.28,2.88.85,3.92.57,1.04,1.35,1.86,2.36,2.47,1.01.6,2.13,1.04,3.38,1.32,1.24.27,2.54.41,3.9.41,1.61,0,3.15-.18,4.64-.55,1.48-.36,2.84-.91,4.09-1.65,1.24-.73,2.29-1.59,3.13-2.58h.38c.11.88.32,1.68.63,2.41.31.73.8,1.3,1.48,1.7.68.4,1.6.6,2.77.6M113.28,112.41c0,1.13-.32,2.17-.96,3.1-.64.93-1.48,1.73-2.52,2.39-1.04.66-2.2,1.17-3.48,1.54-1.28.37-2.58.55-3.9.55-1.13,0-2.19-.14-3.16-.41-.97-.28-1.74-.71-2.3-1.32-.57-.6-.85-1.42-.85-2.44,0-1.57.65-2.77,1.95-3.59,1.3-.82,3.23-1.39,5.79-1.7,2.56-.31,5.71-.47,9.44-.47v2.36Z"/>
      <path class="cls-1" d="M142.09,94.41c-.33-.15-.77-.25-1.32-.33-.55-.07-1.1-.11-1.65-.11-1.46,0-2.71.29-3.73.88-1.02.59-1.83,1.32-2.42,2.2-.58.88-1.02,1.76-1.32,2.63h-.38l-.38-5.05h-4.12v28.86h5.1v-15.31c0-1.13.14-2.25.41-3.35.27-1.1.72-2.09,1.35-2.99.62-.9,1.43-1.6,2.41-2.11.99-.51,2.21-.77,3.68-.77h2.36v-4.56Z"/>
      <path class="cls-1" d="M170.46,121.05c1.17-.97,2.05-2.09,2.63-3.35.59-1.26.9-2.61.93-4.03h-5.05c-.04.88-.29,1.7-.74,2.47-.46.77-1.07,1.44-1.84,2-.77.57-1.68,1.02-2.74,1.37-1.06.35-2.27.52-3.62.52-1.98,0-3.7-.32-5.16-.96-1.46-.64-2.59-1.67-3.38-3.1-.79-1.43-1.22-3.29-1.29-5.6h24.03v-2.52c0-2.93-.53-5.42-1.59-7.49s-2.65-3.65-4.77-4.75c-2.12-1.1-4.79-1.65-8.01-1.65s-5.95.55-8.18,1.65c-2.23,1.1-3.92,2.76-5.08,4.99-1.15,2.23-1.73,5.05-1.73,8.45s.58,6.27,1.76,8.51c1.17,2.23,2.87,3.89,5.1,4.97,2.23,1.08,4.94,1.62,8.12,1.62,2.34,0,4.4-.27,6.17-.82,1.77-.55,3.25-1.31,4.42-2.28M151.69,101.79c.8-1.26,1.89-2.19,3.27-2.8,1.37-.6,2.97-.91,4.8-.91,1.28,0,2.46.15,3.54.44,1.08.29,2.04.78,2.88,1.45.84.68,1.5,1.56,1.98,2.64.47,1.08.71,2.4.71,3.98h-18.6c.15-1.94.62-3.54,1.43-4.8"/>
      <polygon class="cls-1" points="178.69 123.49 205.36 123.49 205.36 119.32 186.26 119.32 204.54 97.21 204.54 94.63 179.95 94.63 179.95 98.8 196.8 98.8 178.69 120.8 178.69 123.49"/>
      <path class="cls-1" d="M302.67,121.05c1.17-.97,2.05-2.09,2.63-3.35.59-1.26.9-2.61.93-4.03h-5.05c-.04.88-.29,1.7-.74,2.47-.46.77-1.07,1.44-1.84,2-.77.57-1.68,1.02-2.74,1.37-1.06.35-2.27.52-3.62.52-1.98,0-3.7-.32-5.16-.96-1.46-.64-2.59-1.67-3.38-3.1-.79-1.43-1.22-3.29-1.29-5.6h24.03v-2.52c0-2.93-.53-5.42-1.59-7.49-1.06-2.07-2.65-3.65-4.77-4.75-2.12-1.1-4.79-1.65-8.01-1.65s-5.95.55-8.18,1.65c-2.23,1.1-3.92,2.76-5.08,4.99-1.15,2.23-1.73,5.05-1.73,8.45s.58,6.27,1.76,8.51c1.17,2.23,2.87,3.89,5.1,4.97,2.23,1.08,4.94,1.62,8.12,1.62,2.34,0,4.4-.27,6.17-.82,1.77-.55,3.25-1.31,4.42-2.28M283.91,101.79c.8-1.26,1.89-2.19,3.27-2.8,1.37-.6,2.97-.91,4.8-.91,1.28,0,2.46.15,3.54.44,1.08.29,2.04.78,2.88,1.45.84.68,1.5,1.56,1.98,2.64.47,1.08.71,2.4.71,3.98h-18.6c.15-1.94.62-3.54,1.43-4.8"/>
      <path class="cls-1" d="M334.77,98.41h-.38c-.73-1.02-1.59-1.86-2.58-2.52-.99-.66-2.09-1.14-3.32-1.45-1.23-.31-2.57-.47-4.03-.47-2.6,0-4.85.54-6.75,1.62-1.9,1.08-3.38,2.73-4.42,4.94-1.04,2.21-1.56,5.02-1.56,8.42s.51,6.28,1.54,8.53c1.02,2.25,2.5,3.92,4.42,5.02,1.92,1.1,4.23,1.65,6.94,1.65,2.16,0,4.12-.4,5.9-1.21,1.77-.8,3.23-2.07,4.36-3.79h.38l.49,4.34h4.11v-37.64h-5.1v12.57ZM334.77,109.5c0,2.27-.35,4.16-1.04,5.68-.7,1.52-1.72,2.66-3.07,3.43-1.35.77-3,1.15-4.94,1.15-1.76,0-3.29-.35-4.61-1.04-1.32-.69-2.32-1.78-3.02-3.27-.7-1.48-1.04-3.43-1.04-5.84v-1.1c0-2.38.35-4.31,1.04-5.79.69-1.48,1.7-2.58,3.02-3.29,1.32-.71,2.89-1.07,4.72-1.07,1.28,0,2.46.18,3.54.55,1.08.37,2.03.95,2.85,1.76.82.81,1.45,1.87,1.89,3.18.44,1.32.66,2.93.66,4.83v.82Z"/>
      <rect class="cls-1" x="347.84" y="85.9" width="5.1" height="5.27"/>
      <rect class="cls-1" x="347.84" y="94.63" width="5.1" height="28.86"/>
      <path class="cls-1" d="M382.52,95.01c-1.57-.69-3.48-1.04-5.71-1.04-1.35,0-2.7.16-4.03.49-1.34.33-2.6.89-3.79,1.67-1.19.79-2.24,1.84-3.16,3.16h-.44l-.44-4.66h-4.06v28.86h5.1v-16.46c0-1.79.43-3.33,1.29-4.61.86-1.28,1.99-2.28,3.4-2.99,1.41-.71,2.88-1.07,4.42-1.07,1.06,0,2.03.1,2.91.3.88.2,1.63.54,2.25,1.02s1.11,1.15,1.45,2.03c.35.88.52,2.01.52,3.4v18.38h5.16v-19.21c0-2.49-.42-4.48-1.26-5.98-.84-1.5-2.05-2.6-3.62-3.29"/>
      <path class="cls-1" d="M422.85,119.98c-.58,0-1.02-.16-1.32-.47-.29-.31-.44-.83-.44-1.56v-14.71c0-2.16-.49-3.91-1.46-5.27-.97-1.35-2.39-2.36-4.28-3.02-1.89-.66-4.23-.99-7.05-.99s-5.23.31-7.24.93c-2.01.62-3.55,1.55-4.61,2.77-1.06,1.23-1.59,2.7-1.59,4.42v.63c0,.16.02.34.05.52h4.99v-.93c0-.77.27-1.47.82-2.11.55-.64,1.41-1.15,2.58-1.54,1.17-.38,2.67-.58,4.5-.58,2.12,0,3.77.2,4.94.6,1.17.4,2,1.03,2.5,1.89.49.86.74,1.97.74,3.32v2.47c-3.18,0-6.14.1-8.86.3-2.73.2-5.1.62-7.13,1.26-2.03.64-3.61,1.61-4.75,2.91-1.14,1.3-1.7,3.03-1.7,5.18,0,1.57.28,2.88.85,3.92.57,1.04,1.35,1.86,2.36,2.47,1.01.6,2.13,1.04,3.38,1.32,1.24.27,2.54.41,3.9.41,1.61,0,3.15-.18,4.64-.55,1.48-.36,2.84-.91,4.09-1.65,1.24-.73,2.29-1.59,3.13-2.58h.38c.11.88.32,1.68.63,2.41s.8,1.3,1.48,1.7c.68.4,1.6.6,2.77.6.8,0,1.56-.08,2.28-.25.71-.16,1.34-.34,1.89-.52v-3.35h-2.47ZM415.99,112.41c0,1.13-.32,2.17-.96,3.1-.64.93-1.48,1.73-2.53,2.39-1.04.66-2.2,1.17-3.48,1.54-1.28.37-2.58.55-3.9.55-1.13,0-2.19-.14-3.16-.41-.97-.28-1.74-.71-2.3-1.32-.57-.6-.85-1.42-.85-2.44,0-1.57.65-2.77,1.95-3.59s3.23-1.39,5.79-1.7c2.56-.31,5.71-.47,9.44-.47v2.36Z"/>
      <polygon class="cls-1" points="270.63 123.49 270.63 85.85 264.23 85.85 264.23 85.85 257.82 85.85 252.08 98.48 248.88 105.54 245.67 98.48 239.93 85.85 233.53 85.85 233.53 85.85 227.12 85.85 227.12 123.49 233.53 123.49 233.53 85.85 242.47 105.54 245.67 112.59 252.08 112.59 255.29 105.54 264.23 85.86 264.23 123.49 270.63 123.49"/>
      <path class="cls-1" d="M121.5,148.03l-5.97,13.2h2.04l1.4-3.2h7.35l1.43,3.2h2.14l-5.97-13.2h-2.43ZM119.71,156.38l1.79-4.02c.08-.19.18-.44.31-.75.13-.31.26-.63.4-.97.14-.34.26-.65.37-.91h.15c.07.17.15.37.24.62.1.24.2.49.3.75.1.26.2.5.3.73.1.23.18.41.24.54l1.77,4.02h-5.87Z"/>
      <path class="cls-1" d="M152.75,154.95c-.39-.28-.84-.47-1.34-.57v-.08c.44-.14.82-.36,1.16-.64.33-.29.59-.64.78-1.07.18-.42.28-.88.28-1.39,0-.65-.15-1.22-.45-1.69-.3-.47-.73-.84-1.29-1.1-.56-.26-1.21-.38-1.95-.38h-8.18v13.2h8.18c.77,0,1.46-.12,2.07-.37.61-.24,1.1-.63,1.46-1.15s.55-1.21.55-2.04c0-.64-.11-1.19-.34-1.64-.23-.45-.53-.81-.92-1.09M143.72,149.71h5.87c.62,0,1.11.15,1.48.46.37.31.56.79.56,1.44,0,.41-.1.77-.3,1.08-.2.31-.47.54-.81.71-.34.17-.73.25-1.16.25h-5.64v-3.95ZM151.38,159.07c-.41.33-.95.49-1.62.49h-6.04v-4.25h5.95c.5,0,.92.08,1.27.24.35.16.61.4.79.72.18.32.27.72.27,1.19,0,.74-.21,1.28-.62,1.61"/>
      <path class="cls-1" d="M177.42,148.57c-1.12-.51-2.45-.77-4-.77s-2.87.26-3.99.77c-1.12.51-1.98,1.27-2.58,2.28-.6,1.01-.89,2.27-.89,3.78s.3,2.76.89,3.77c.6,1.01,1.46,1.78,2.58,2.29,1.12.51,2.45.77,3.99.77s2.89-.26,4-.77c1.12-.51,1.97-1.28,2.57-2.29.6-1.01.9-2.27.9-3.77s-.3-2.77-.9-3.78c-.6-1.01-1.45-1.77-2.57-2.28M178.86,154.84c0,.86-.13,1.6-.4,2.22-.26.62-.64,1.13-1.13,1.54-.49.4-1.06.7-1.72.9-.66.19-1.4.29-2.2.29s-1.54-.1-2.2-.29c-.66-.19-1.24-.49-1.72-.9-.49-.4-.86-.92-1.12-1.54-.26-.62-.39-1.37-.39-2.22v-.42c0-.86.13-1.6.39-2.23.26-.63.64-1.14,1.12-1.54.49-.4,1.06-.69,1.72-.89.66-.19,1.4-.29,2.2-.29s1.54.1,2.2.29c.66.19,1.23.49,1.72.89.49.4.86.91,1.13,1.54.26.63.4,1.37.4,2.23v.42Z"/>
      <path class="cls-1" d="M195.47,152.15c.27-.63.65-1.14,1.15-1.54.5-.4,1.09-.69,1.77-.87.68-.18,1.43-.27,2.25-.27.65,0,1.27.05,1.86.15.58.1,1.1.27,1.55.51.45.24.8.57,1.06.96.26.4.39.89.39,1.48h1.96c0-.82-.16-1.53-.48-2.13-.32-.6-.79-1.09-1.39-1.48-.61-.39-1.33-.68-2.18-.88-.84-.19-1.77-.29-2.8-.29-1.6,0-2.97.26-4.1.77-1.13.51-1.99,1.28-2.58,2.29-.59,1.01-.89,2.27-.89,3.77,0,2.31.61,4.03,1.83,5.15,1.22,1.12,3.03,1.68,5.43,1.68.76,0,1.48-.07,2.17-.2.69-.13,1.33-.35,1.91-.65.58-.3,1.07-.7,1.48-1.18l.21,1.81h1.39v-7.02h-7.26v1.62h5.31v.25c0,.8-.18,1.47-.53,2.02-.35.55-.91.97-1.66,1.26-.76.29-1.75.43-2.97.43-1.08,0-2.01-.16-2.81-.49-.8-.33-1.41-.86-1.84-1.59-.43-.73-.64-1.69-.64-2.87v-.44c0-.87.13-1.62.4-2.25"/>
      <path class="cls-1" d="M225.13,148.03l-5.97,13.2h2.04l1.4-3.2h7.35l1.43,3.2h2.14l-5.97-13.2h-2.42ZM223.34,156.38l1.79-4.02c.08-.19.18-.44.31-.75.13-.31.26-.63.4-.97.14-.34.26-.65.37-.91h.15c.06.17.15.37.24.62.1.24.2.49.3.75.1.26.2.5.3.73.1.23.18.41.24.54l1.77,4.02h-5.87Z"/>
      <path class="cls-1" d="M255.03,148.75c-1.06-.48-2.33-.72-3.82-.72h-5.83v13.2h5.83c1.49,0,2.76-.24,3.82-.72,1.06-.48,1.87-1.21,2.45-2.19.57-.98.86-2.21.86-3.69s-.29-2.72-.86-3.7c-.57-.97-1.39-1.7-2.45-2.18M256.31,154.84c0,.84-.12,1.55-.38,2.15-.25.6-.61,1.08-1.07,1.46-.46.38-1.01.66-1.64.84-.63.18-1.32.27-2.08.27h-3.81v-9.85h3.81c.77,0,1.47.09,2.1.27.63.18,1.17.46,1.63.84.46.38.81.87,1.06,1.46.25.6.38,1.32.38,2.16v.4Z"/>
      <path class="cls-1" d="M281.93,148.57c-1.12-.51-2.45-.77-4-.77s-2.87.26-3.99.77c-1.12.51-1.98,1.27-2.58,2.28-.6,1.01-.9,2.27-.9,3.78s.3,2.76.9,3.77c.6,1.01,1.46,1.78,2.58,2.29,1.12.51,2.45.77,3.99.77s2.89-.26,4-.77c1.12-.51,1.97-1.28,2.57-2.29.6-1.01.9-2.27.9-3.77s-.3-2.77-.9-3.78c-.6-1.01-1.45-1.77-2.57-2.28M283.37,154.84c0,.86-.13,1.6-.4,2.22-.26.62-.64,1.13-1.13,1.54-.49.4-1.06.7-1.72.9-.66.19-1.4.29-2.2.29s-1.54-.1-2.2-.29c-.66-.19-1.24-.49-1.72-.9-.49-.4-.86-.92-1.13-1.54-.26-.62-.39-1.37-.39-2.22v-.42c0-.86.13-1.6.39-2.23.26-.63.64-1.14,1.13-1.54.49-.4,1.06-.69,1.72-.89.66-.19,1.4-.29,2.2-.29s1.54.1,2.2.29c.66.19,1.23.49,1.72.89.49.4.86.91,1.13,1.54.26.63.4,1.37.4,2.23v.42Z"/>
      <path class="cls-1" d="M308.22,154.79c-.48-.28-1.01-.51-1.61-.69-.6-.18-1.21-.33-1.84-.46-.63-.13-1.24-.25-1.84-.38-.6-.12-1.13-.26-1.61-.42-.47-.16-.85-.37-1.13-.62-.28-.25-.41-.58-.41-.97,0-.36.15-.67.44-.94.29-.27.74-.48,1.33-.63.59-.15,1.34-.22,2.23-.22.73,0,1.36.09,1.9.26.53.17.95.41,1.24.7.29.3.44.64.44,1.02v.33h1.94v-.31c0-.55-.12-1.05-.36-1.5-.24-.45-.59-.83-1.07-1.15-.47-.32-1.06-.57-1.76-.74-.7-.17-1.51-.26-2.43-.26-1.01,0-1.89.08-2.63.25-.74.17-1.35.41-1.84.72-.49.32-.85.69-1.09,1.13-.24.44-.36.92-.36,1.46,0,.63.14,1.16.41,1.59.27.43.65.78,1.13,1.05.47.27,1.01.49,1.61.67.6.18,1.21.33,1.84.46.63.13,1.24.26,1.84.38.6.13,1.13.28,1.61.45.47.17.85.4,1.13.67.28.28.41.63.41,1.07,0,.32-.08.6-.24.84-.16.24-.38.44-.65.6-.28.16-.59.29-.94.39-.35.1-.73.17-1.13.21-.4.04-.79.07-1.17.07-.85,0-1.59-.08-2.24-.25-.65-.17-1.15-.42-1.49-.76-.35-.34-.52-.75-.52-1.24,0-.09,0-.18,0-.26,0-.08,0-.15,0-.2h-1.96s0,.09-.01.14c0,.06,0,.12,0,.2,0,.78.17,1.43.51,1.95.34.52.8.93,1.38,1.23.58.3,1.24.52,2,.65.76.13,1.55.19,2.39.19,1.19,0,2.25-.13,3.17-.39.92-.26,1.64-.69,2.16-1.28.52-.59.78-1.37.78-2.35,0-.63-.14-1.16-.42-1.59-.28-.43-.66-.79-1.14-1.07"/>
    </g>
  </g>
</svg>