<?xml version="1.0" encoding="UTF-8"?>
<svg id="Capa_1" data-name="Capa 1" xmlns="http://www.w3.org/2000/svg" viewBox="0 0 1080 1080">
  <defs>
    <style>
      .cls-1 {
        fill: #132d15;
      }
    </style>
  </defs>
  <path class="cls-1" d="M177.84,462.95v147.21c0,10.13,10.47,17.33,19.86,21.41h-37.07c6.59-3.2,12.39-11.26,12.39-21.41v-141.97c0-10.16-5.8-18.21-12.39-21.41h25.75l67.25,127.33,65.08-127.33h29.47c-6.59,3.2-12.38,11.26-12.38,21.41v141.97c0,10.16,5.8,18.21,12.38,21.41h-49.33c9.4-4.09,19.86-11.29,19.86-21.41v-153.95l-68.67,134.34h-4.82l-67.38-127.59Z"/>
  <path class="cls-1" d="M463.32,631.63c-50.62,0-91.65-41.59-91.65-92.88s41.03-92.88,91.65-92.88,91.65,41.59,91.65,92.88-41.03,92.88-91.65,92.88ZM538.11,538.75c0-47.07-31.06-88.13-74.79-88.13s-74.79,41.05-74.79,88.13,31.06,88.13,74.79,88.13,74.79-41.05,74.79-88.13Z"/>
  <path class="cls-1" d="M590.78,610.16v-140.32c0-10.16-5.8-18.21-12.39-21.41h19.09c9.39-1.66,23.21-2.56,33.19-2.56,46.56,0,76.88,22.23,76.88,46.49s-18.57,33.23-39.68,40.92c19.9,4.17,38.32,18.14,40.03,49.72,1.18,21.8,5.42,43.73,17.37,43.73,2.67,0,5.65-2.26,5.78-4.85.32,5.86-4.46,12.26-12.76,12.26-20.86,0-25.9-22.02-27.24-46.75-2.03-37.59-17.03-49.17-33.37-50.56-24.92,8.49-49.83,16.66-49.83,42.59v30.75c0,10.16,5.8,18.21,12.38,21.41h-41.85c6.59-3.2,12.39-11.26,12.39-21.41ZM630.67,450.68c-6.93,0-15.33.5-22.81,1.44v108.47c18.32-30.63,82.61-23.3,82.61-68.24,0-22.26-19.57-41.67-59.8-41.67Z"/>
  <path class="cls-1" d="M871.42,446.99v41.67c-7.04-17.57-26.83-36.85-53.66-36.85h-39.53v113.12c7.19-14.38,22.8-34.09,49.38-41.26,0,0,0,0,0,0,.03,0,.06-.01.09-.02.6-.16,1.2-.31,1.81-.46,8.53-2.43,16.53-8.52,19.51-14.65v37.12c-4.83-9.8-11.27-19.45-20.48-17.39-36.8,9.6-50.31,43.63-50.31,51.34v47.14h43.96c26.83,0,46.61-19.28,53.66-36.85v41.67h-127.08c6.59-3.2,12.38-11.26,12.38-21.41v-141.75c0-10.16-5.8-18.21-12.38-21.41h122.66Z"/>
  <path class="cls-1" d="M988.35,631.63c-50.62,0-91.65-41.59-91.65-92.88s41.03-92.88,91.65-92.88,91.65,41.59,91.65,92.88-41.03,92.88-91.65,92.88ZM1063.14,538.75c0-47.07-31.06-88.13-74.79-88.13s-74.79,41.05-74.79,88.13,31.06,88.13,74.79,88.13,74.79-41.05,74.79-88.13Z"/>
  <path class="cls-1" d="M143.93,610.02l-51.06-163.23h-17.05s-32.29,99.45-32.29,99.45c-.83,2.56-1.87,5.71-3,9.11-2.42-.05-4.87.05-7.36.34-10.05,1.14-19.73,5.31-27.47,11.81-3.85,3.35-5.91,8.51-5.69,13.58.25,5.61,3.38,10.91,8.16,13.85,5.31,3.79,12.58,4.61,18.44,1.52,4.51-2.26,7.69-6.54,9.02-11.37,2.06-6.25,4.88-14.85,8.08-24.66,10.75,1.02,21.16,5.56,28.79,13.41,4.18,4.09,7.6,9.03,10.32,14.19,3.25,6.08,5.08,12.87,7.71,19.22,1.6,4.07,3.27,8.18,4.97,12.21,3.29,7.93,11.56,11.83,19.83,12.06l.02.09c.22,0,.44.03.66.03,0,0,.75-.04,2-.18,1.28-.09,2.55-.26,3.79-.53,9.43-1.57,26.64-6.45,22.12-20.91ZM32.03,581.14c-.27.81-.97,2.95-1.23,3.74-1.89,6.13-8.69,10.01-14.92,8.48-1.85-.37-3.57-1.4-5.22-2.43-4.82-2.94-7.05-9.06-5.34-14.42,1.41-4.68,5.45-7.04,9.62-9.73,7.23-4.41,15.61-6.56,24-6.58-2.51,7.57-5.17,15.59-6.9,20.94ZM99.08,615.11c-4.72-11.4-10.19-26.04-11.89-29.38-8.55-16.77-23.93-28.04-41.91-30.06,9.51-29.1,32.79-101.1,32.79-101.1l48.62,155.45c6.38,20.43-20.67,21.86-27.61,5.1Z"/>
</svg>