<?xml version="1.0" encoding="UTF-8"?>
<svg id="Capa_2" data-name="Capa 2" xmlns="http://www.w3.org/2000/svg" viewBox="0 0 485.8 169.94">
  <defs>
    <style>
      .cls-1 {
        fill: #132d15;
      }
    </style>
  </defs>
  <g id="Capa_1-2" data-name="Capa 1">
    <g>
      <g>
        <path class="cls-1" d="M0,118.16L36.43,22.54l36.24,95.62h-9.83l-14.07-37.21H16L1.54,118.16H0ZM48.19,79.6l-15.81-42.22-16,42.22h31.81Z"/>
        <path class="cls-1" d="M92.73,66.3c1.16-2.44,2.83-4.63,5.01-6.55,2.18-1.93,4.53-3.57,7.04-4.92,2.51-1.35,5.01-2.41,7.52-3.18,2.51-.77,4.72-1.16,6.65-1.16v12.15c-1.67-1.41-3.31-2.63-4.92-3.66-1.61-1.03-3.76-1.54-6.46-1.54-1.93,0-3.76.45-5.49,1.35-1.74.9-3.31,2.02-4.72,3.37-1.42,1.35-2.54,2.8-3.37,4.34-.84,1.54-1.25,2.89-1.25,4.05v47.62h-7.71V50.68h.38c2.18,0,3.95.67,5.3,2.02,1.35,1.35,2.02,3.12,2.02,5.3v8.29Z"/>
        <path class="cls-1" d="M146.13,50.68h23.9v1.73h-23.9v48.39c0,4.5,1.32,7.94,3.95,10.31,2.63,2.38,5.62,3.57,8.96,3.57,2.18,0,4.27-.48,6.26-1.45,1.99-.96,3.82-2.47,5.49-4.53l.58.19c-1.67,2.96-3.99,5.27-6.94,6.94-2.96,1.67-6.11,2.51-9.45,2.51-2.96,0-5.49-.54-7.61-1.64-2.12-1.09-3.86-2.57-5.21-4.43-1.35-1.86-2.31-4.01-2.89-6.46-.58-2.44-.87-5.01-.87-7.71v-45.69h-9.06v-1.73c4.75,0,8.39-1.16,10.89-3.47,2.51-2.31,4.46-4.95,5.88-7.9v11.37Z"/>
      </g>
      <g>
        <path class="cls-1" d="M238.05,118.02c0,.28-.14.69-.83.69-1.67,0-10.42-.56-14.32-.56-2.22,0-10.98.56-12.93.56-.56,0-.7-.42-.7-.69,0-.42.42-.7.83-.7,6.26,0,9.87-3.2,11.82-13.07l5.98-33.78c2.5-14.18,1.67-22.52-6.39-22.52-9.59,0-19.04,11.68-22.1,20.99l-6.25,33.92c-1.67,10.43.97,14.46,6.39,14.46.83,0,.97.42.97.7s-.14.69-.83.69c-1.67,0-10.43-.56-14.32-.56-2.22,0-10.98.56-12.93.56-.56,0-.69-.42-.69-.69,0-.42.42-.7.83-.7,6.53,0,10.15-3.48,12.09-14.46l15.71-85.63c.7-3.75-.14-5.28-2.5-4.59-4.45,1.25-5.84.7-5.84-.14,0-.42.28-.56.69-.7,11.96-4.17,18.63-11.82,20.16-11.82.56,0,.83.56.56,1.11-1.11,1.67-2.5,4.87-3.75,11.4l-9.31,51.15c3.2-6.81,10.84-17.65,22.8-17.65,7.09,0,16.68,3.75,13.48,22.38l-5.98,34.47c-1.67,10.43.97,14.46,6.39,14.46.83,0,.97.42.97.7Z"/>
        <path class="cls-1" d="M259.87,82.57c-3.75,20.99-2.5,35.03,10.98,35.03,7.37,0,19.18-4.17,25.16-16.12l1.39.83c-6.25,12.37-17.79,17.24-27.25,17.24-16.12,0-24.33-13.9-20.16-36.98,4.31-24.6,20.02-36.56,34.06-36.56,14.87,0,22.24,13.48,18.49,35.03h-42.4l-.28,1.53ZM260.56,79.1h33.22c3.2-20.3-.28-31.14-10.01-31.14s-19.04,10.84-23.21,31.14Z"/>
        <path class="cls-1" d="M342.57,1.11c-1.11,1.67-2.5,4.87-3.75,11.4l-16.54,90.35c-1.67,10.43.97,14.46,6.39,14.46.83,0,.97.42.97.7s-.14.69-.83.69c-1.67,0-10.43-.56-14.32-.56-2.22,0-10.98.56-12.93.56-.56,0-.69-.42-.69-.69,0-.42.42-.7.83-.7,6.53,0,10.15-3.48,12.09-14.46l15.71-85.63c.7-3.75-.14-5.28-2.5-4.59-4.45,1.25-5.84.7-5.84-.14,0-.42.28-.56.69-.7,11.96-4.17,18.63-11.82,20.16-11.82.56,0,.83.56.56,1.11Z"/>
        <path class="cls-1" d="M365.37,47.12c-1.11,1.67-2.64,4.87-3.75,11.4l-8.06,45.73c-1.67,10.42,1.25,13.07,6.67,13.07.83,0,.97.42.97.7s-.14.69-.83.69c-1.67,0-10.43-.56-14.32-.56-2.22,0-10.98.56-12.93.56-.56,0-.69-.42-.69-.69,0-.42.42-.7.83-.7,6.53,0,9.87-2.08,11.82-13.07l7.23-41.01c.7-3.75-.14-5.28-2.5-4.59-4.45,1.25-5.84.69-5.84-.14,0-.42.28-.56.7-.69,11.96-4.17,18.63-11.82,20.16-11.82.56,0,.83.56.56,1.11ZM368.15,34.33c-.7,3.61-4.31,6.12-8.06,6.12-4.03,0-6.81-2.5-6.12-6.26.83-3.75,4.31-6.12,8.2-6.12s6.67,2.36,5.98,6.26Z"/>
        <path class="cls-1" d="M382.74,82.57c-3.75,20.99-2.5,35.03,10.98,35.03,7.37,0,19.18-4.17,25.16-16.12l1.39.83c-6.25,12.37-17.79,17.24-27.25,17.24-16.12,0-24.33-13.9-20.16-36.98,4.31-24.6,20.02-36.56,34.06-36.56,14.87,0,22.24,13.48,18.49,35.03h-42.4l-.28,1.53ZM383.44,79.1h33.22c3.2-20.3-.28-31.14-10.01-31.14s-19.04,10.84-23.21,31.14Z"/>
        <path class="cls-1" d="M485.6,59.08c-.56,3.61-3.2,7.37-7.79,7.37-3.47,0-6.95-2.36-5.98-7.78,1.11-6.26,5.7-10.7,0-10.7-9.59,0-16.68,12.37-19.6,21.82l-6.12,34.47c-1.67,10.42,1.25,13.07,6.67,13.07.83,0,.97.42.97.7s-.14.69-.83.69c-1.67,0-10.43-.56-14.32-.56-2.22,0-10.98.56-12.93.56-.56,0-.69-.42-.69-.69,0-.42.42-.7.83-.7,6.53,0,9.87-2.08,11.82-13.07l7.23-41.01c.7-3.75-.14-5.28-2.5-4.59-4.45,1.25-5.84.69-5.84-.14,0-.42.28-.56.7-.69,11.96-4.17,18.63-11.82,20.16-11.82.56,0,.83.56.56,1.11-1.11,1.67-2.64,4.87-3.75,11.4l-.7,4.31c3.34-7.51,9.31-16.82,19.46-16.82,7.92,0,14.04,5.14,12.65,13.07Z"/>
      </g>
      <g>
        <path class="cls-1" d="M143.89,161.99h-7.2l-2.76,7.2c-.14.35-.29.55-.67.55-.35,0-.49-.14-.49-.38,0-.09.03-.23.12-.44l6.85-17.79c.12-.32.32-.55.67-.55s.55.23.67.55l6.62,17.79c.06.15.12.32.12.44,0,.2-.15.38-.55.38-.35,0-.55-.14-.7-.55l-2.67-7.2ZM137.07,161h6.44l-3.16-8.53-3.28,8.53Z"/>
        <path class="cls-1" d="M153.96,169.07c0,.17,0,.35-.09.46-.09.15-.29.2-.49.2s-.41-.06-.49-.2c-.09-.12-.09-.29-.09-.46v-17.3c0-.61,0-.9.99-1.04.58-.09,1.45-.15,2.26-.15,1.54,0,3.05.2,4.32.87,1.51.78,2.41,2.09,2.41,4.12,0,2.44-1.31,4.29-4.24,5.11l5.95,8.27c.29.41.26.78-.38.78-.49,0-.7-.23-.93-.58l-4.15-5.8c-.87-1.22-1.65-2.44-1.65-2.44,0,0-.93.14-2.21.14-.81,0-1.22-.06-1.22-.06v8.07ZM153.96,160.01s.49.06,1.31.06c4.32,0,6.24-1.71,6.24-4.35,0-3.19-2.73-4.15-5.54-4.15-1.1,0-2,.15-2,.15v8.3Z"/>
        <path class="cls-1" d="M174.22,169.07c0,.17,0,.35-.09.46-.09.15-.29.2-.49.2s-.41-.06-.49-.2c-.09-.12-.09-.29-.09-.46v-17.27h-6.18c-.17,0-.35,0-.49-.09-.15-.09-.2-.23-.2-.41,0-.2.06-.35.2-.44.14-.09.32-.09.49-.09h13.52c.17,0,.35,0,.49.09s.2.23.2.41c0,.2-.06.35-.2.44s-.32.09-.49.09h-6.18v17.27Z"/>
        <path class="cls-1" d="M186.73,169.07c0,.17,0,.35-.09.46-.09.15-.29.2-.49.2s-.41-.06-.49-.2c-.09-.12-.09-.29-.09-.46v-17.82c0-.17,0-.35.09-.46.09-.15.29-.2.49-.2s.41.06.49.2c.09.12.09.29.09.46v17.82Z"/>
        <path class="cls-1" d="M199.24,159.75c1.89,1.1,3.4,2.67,3.4,5.14,0,3.28-2.7,5.02-5.63,5.02-1.36,0-2.7-.38-3.77-1.07-.64-.41-1.1-.9-1.1-1.22,0-.29.29-.55.55-.55.67,0,1.54,1.8,4.3,1.8,2.52,0,4.5-1.48,4.5-3.95,0-1.94-1.25-3.22-2.67-4.09-2.15-1.33-6.09-2.58-6.09-6.09,0-2.5,2-4.35,5.14-4.35,2.47,0,4.35,1.16,4.35,1.77,0,.2-.17.52-.49.52-.61,0-1.51-1.25-3.8-1.25s-4.03,1.33-4.03,3.28c0,2.73,3.34,3.86,5.37,5.05Z"/>
        <path class="cls-1" d="M217.09,161.99h-7.2l-2.76,7.2c-.14.35-.29.55-.67.55-.35,0-.49-.14-.49-.38,0-.09.03-.23.12-.44l6.85-17.79c.12-.32.32-.55.67-.55s.55.23.67.55l6.62,17.79c.06.15.12.32.12.44,0,.2-.15.38-.55.38-.35,0-.55-.14-.7-.55l-2.67-7.2ZM210.27,161h6.44l-3.16-8.53-3.28,8.53Z"/>
        <path class="cls-1" d="M227.1,169.07c0,.17,0,.35-.09.46-.09.15-.26.2-.46.2s-.38-.06-.46-.2c-.09-.12-.09-.29-.09-.46v-17.91c0-.38.15-.58.55-.58.35,0,.58.15.84.49l12.57,16.6v-16.43c0-.17,0-.35.09-.46.09-.15.26-.2.46-.2s.38.06.46.2c.09.12.09.29.09.46v17.91c0,.38-.14.58-.55.58-.35,0-.58-.14-.84-.49l-12.57-16.6v16.43Z"/>
        <path class="cls-1" d="M259.52,162.01c-.81,0-1.39-.06-1.39-.06v7.11c0,.17,0,.35-.09.46-.09.15-.29.2-.49.2s-.41-.06-.49-.2c-.09-.12-.09-.29-.09-.46v-17.27c0-.61,0-.87.67-1.02.52-.12,1.51-.2,2.5-.2,2.03,0,3.71.38,5.02,1.31,1.31.93,2.18,2.38,2.18,4.41,0,4.41-4.03,5.72-7.81,5.72ZM258.12,160.97s.55.06,1.33.06c3.08,0,6.62-.93,6.62-4.73,0-3.25-2.61-4.73-6.04-4.73-1.07,0-1.92.15-1.92.15v9.26Z"/>
        <path class="cls-1" d="M273.77,169.07c0,.17,0,.35-.09.46-.09.15-.29.2-.49.2s-.41-.06-.49-.2c-.09-.12-.09-.29-.09-.46v-17.82c0-.17,0-.35.09-.46.09-.15.29-.2.49-.2s.41.06.49.2c.09.12.09.29.09.46v17.82Z"/>
        <path class="cls-1" d="M282.13,158.79h5.57c.17,0,.35,0,.49.09.15.09.2.23.2.41,0,.2-.06.35-.2.43-.14.09-.32.09-.49.09h-5.57v8.74h7.6c.17,0,.35,0,.49.09.15.09.2.23.2.41,0,.2-.06.35-.2.44-.14.09-.32.09-.49.09h-8.18c-.43,0-.58-.2-.58-.58v-17.62c0-.38.15-.58.58-.58h7.2c.17,0,.35,0,.49.09s.2.23.2.41c0,.2-.06.35-.2.44s-.32.09-.49.09h-6.62v6.99Z"/>
        <path class="cls-1" d="M303.86,168.89c1.25,0,2.44-.26,3.45-.7,1.28-.55,1.83-1.19,2.21-1.19.26,0,.46.26.46.52,0,.29-.26.55-.81.9-1.63,1.04-3.42,1.51-5.28,1.51-4.73,0-9.55-2.99-9.55-9.95s4.64-9.67,9.35-9.67c2.15,0,3.89.58,5.25,1.39.67.41,1.04.73,1.04,1.02,0,.23-.26.55-.52.55-.35,0-.84-.61-2.15-1.16-1.13-.49-2.44-.75-3.74-.75-3.92,0-7.98,2.32-7.98,8.53s4.32,9,8.27,9Z"/>
        <path class="cls-1" d="M316.78,158.79h5.57c.17,0,.35,0,.49.09.15.09.2.23.2.41,0,.2-.06.35-.2.43s-.32.09-.49.09h-5.57v8.74h7.6c.17,0,.35,0,.49.09.15.09.2.23.2.41,0,.2-.06.35-.2.44-.14.09-.32.09-.49.09h-8.18c-.44,0-.58-.2-.58-.58v-17.62c0-.38.15-.58.58-.58h7.2c.17,0,.35,0,.49.09s.2.23.2.41c0,.2-.06.35-.2.44s-.32.09-.49.09h-6.62v6.99Z"/>
        <path class="cls-1" d="M336.02,159.75c1.89,1.1,3.4,2.67,3.4,5.14,0,3.28-2.7,5.02-5.63,5.02-1.36,0-2.7-.38-3.77-1.07-.64-.41-1.1-.9-1.1-1.22,0-.29.29-.55.55-.55.67,0,1.54,1.8,4.3,1.8,2.52,0,4.5-1.48,4.5-3.95,0-1.94-1.25-3.22-2.67-4.09-2.15-1.33-6.09-2.58-6.09-6.09,0-2.5,2-4.35,5.14-4.35,2.47,0,4.35,1.16,4.35,1.77,0,.2-.17.52-.49.52-.61,0-1.51-1.25-3.8-1.25s-4.03,1.33-4.03,3.28c0,2.73,3.34,3.86,5.37,5.05Z"/>
      </g>
    </g>
  </g>
</svg>