<?xml version="1.0" encoding="UTF-8"?>
<svg id="Capa_2" data-name="Capa 2" xmlns="http://www.w3.org/2000/svg" viewBox="0 0 47.83 26.95">
  <defs>
    <style>
      .cls-1 {
        fill: #132d15;
      }
    </style>
  </defs>
  <g id="Capa_1-2" data-name="Capa 1">
    <g>
      <g>
        <path class="cls-1" d="M27.2,19.41h1.62s.09.08.09.09v2.57h-6.2V.5s.08-.09.09-.09h4.31s.09.08.09.09v18.9Z"/>
        <path class="cls-1" d="M36.47,3.57c-.2-2.14-1.59-3.44-3.79-3.2-1.5.17-2.45,1.38-2.69,2.8.06,4.25-.33,8.79-.08,13.02.13,2.2,1.37,3.69,3.69,3.51,1.76-.14,2.75-1.61,2.86-3.27.27-4.18-.21-8.65,0-12.86ZM33.93,16.08c-.06.29-.04.61-.19.87-.31.52-1.01.37-1.15-.18-.17-4.36-.03-8.76-.08-13.14.06-.42.2-.82.69-.84.63-.02.7.77.73,1.25.25,3.92-.19,8.09,0,12.04Z"/>
      </g>
      <g>
        <path class="cls-1" d="M47.74,4.57c-.12-2.36-1.3-4.28-3.91-4.14-2.03.11-3.28,1.64-3.41,3.61v14.75c.36,4.54,6.6,4.85,7.25.17-.07-4.72.32-9.69.07-14.39ZM44.85,18.43c.04,1.05-1.06,1.63-1.51.5-.2-4.83-.03-9.7-.09-14.54.05-.31.08-.78.32-1.01.41-.4,1.06-.14,1.19.39.2,4.87.03,9.78.09,14.66Z"/>
        <path class="cls-1" d="M39.77.35c-.02,2.05.02,4.11,0,6.17-.02,2.21-.13,4.45-.18,6.66-.07,2.96.42,5.68-1.71,8.08-1.78,2.01-5.16,2.89-7.59,1.63-.17-.09-.93-.52-1.02-.63-.18-.22.01-2.7-.06-3.16-.47,0-.95.01-1.42-.06v-3.45s.08-.09.09-.09h1.21c.21,1.45.83,2.83,1.98,3.77,2.45,2.01,5.51.05,6.08-2.71.16-.77.02-1.51.15-2.27V.35s2.48,0,2.48,0Z"/>
      </g>
      <g>
        <path class="cls-1" d="M3.87.41H0v23.24h4.1c1.61,0,3.08-1.73,3.15-3.28V3.8c-.1-1.76-1.56-3.39-3.39-3.39ZM4.43,19.91c0,.33-.22,1.09-.62,1.09h-.97V3.07h.91c.27,0,.55.39.6.64.18,5.39.02,10.81.08,16.21Z"/>
        <g>
          <path class="cls-1" d="M12.51,15.57h3.01l-.12,4.34c-.01.71.59,1.39,1.27.85.44-.35.29-.9.33-1.39.09-1.26.42-2.65-.68-3.57-1.45-1.21-3.02-1.12-3.27-3.58-.28-2.79.2-6.01,0-8.84.37-5,7.84-4.1,7.83.32,0,.05-.02.12-.06.12h-2.95c-.17-.39-.19-.81-.56-1.09-.85-.63-1.35.19-1.41,1-.19,2.46.15,5.18,0,7.67.11,1.25,1.35,1.75,2.21,2.45,1.06.87,1.76,1.92,1.86,3.33.24,3.18-.32,6.72-4.33,6.45-1.38-.09-3.11-1.23-3.11-2.74v-5.34Z"/>
          <path class="cls-1" d="M20.86,4.13c-.04-.06-.11-.05-.18-.06-.55-.07-2.24-.07-2.78,0-.05,0-.11,0-.15.03-.43,2.84-.69,5.73-.94,8.6.66.43,1.31.89,1.86,1.46.02,0,.09-.14.09-.15v-2.45h1l.68,10.56h1.95l-1.53-17.99ZM18.77,9.97c.16-1.24.18-2.5.3-3.75.03-.33.1-.28.41-.27l.24,4.01h-.95Z"/>
        </g>
      </g>
      <path class="cls-1" d="M38.17,24.55c-.06-.04-.21,0-.29,0,.05.25-.15.75.19.64.23-.08.18-.58.09-.63ZM42.36,24.49s-.24-.02-.28,0c-.1.06-.13,1.72.03,1.76.05.01.21.01.25-.01.1-.06.1-1.69,0-1.75ZM38.17,24.55c-.06-.04-.21,0-.29,0,.05.25-.15.75.19.64.23-.08.18-.58.09-.63ZM42.36,24.49s-.24-.02-.28,0c-.1.06-.13,1.72.03,1.76.05.01.21.01.25-.01.1-.06.1-1.69,0-1.75ZM38.17,24.55c-.06-.04-.21,0-.29,0,.05.25-.15.75.19.64.23-.08.18-.58.09-.63ZM42.36,24.49s-.24-.02-.28,0c-.1.06-.13,1.72.03,1.76.05.01.21.01.25-.01.1-.06.1-1.69,0-1.75ZM43.78,24.55c-.06-.04-.2,0-.29,0,.05.25-.15.75.2.64.23-.08.18-.58.09-.63ZM45.32,24.74c-.03-.25-.13-.21-.36-.2v1.65c.12,0,.3.04.35-.1.04-.11.03-1.18.01-1.35ZM38.17,24.55c-.06-.04-.21,0-.29,0,.05.25-.15.75.19.64.23-.08.18-.58.09-.63ZM42.36,24.49s-.24-.02-.28,0c-.1.06-.13,1.72.03,1.76.05.01.21.01.25-.01.1-.06.1-1.69,0-1.75ZM43.78,24.55c-.06-.04-.2,0-.29,0,.05.25-.15.75.2.64.23-.08.18-.58.09-.63ZM45.32,24.74c-.03-.25-.13-.21-.36-.2v1.65c.12,0,.3.04.35-.1.04-.11.03-1.18.01-1.35ZM47.74,26.95l-.06-3.13H10.45v-11.27h1.71v-2.65h-1.71V3.07h2.3c.1-.71.43-1.54.91-2.07.17-.18.35-.27.52-.42.06-.05.13-.05.1-.17H6.02c-.03.1.04.12.09.18.89,1.17,1.56,1.62,1.68,3.27l-.06,23.09h40.01ZM46.35,26.19c.12.17.42.08.38-.25-.06-.48-.83-.59-.68-1.42.07-.41.67-.53.91-.26.07.07.18.53.13.57-.07-.01-.34.02-.35,0-.03-.04.09-.55-.33-.3-.18.51.44.7.61,1.11.43,1.08-1.08,1.39-1.05.25.55-.07.26.12.38.3ZM44.61,24.18c.3.01.87-.09,1.02.25.08.18.07,1.42.05,1.67-.07.56-.64.43-1.06.44v-2.36ZM43.14,24.19c.65-.04,1.19-.03,1.06.79-.03.19-.23.34-.23.36,0,.02.23.22.23.3v.91h-.35v-.85c0-.18-.22-.16-.35-.15v1h-.35v-2.36ZM41.68,24.58c.04-.2.18-.4.38-.44.26-.06.53.02.65.27.11.22.11,1.52.05,1.79-.12.52-.85.56-1.04.09-.09-.23-.09-1.43-.04-1.7ZM40.24,24.68c.08-.92,1.32-.64,1.12.27h-.35c.14-.27-.19-.68-.36-.44-.08.11-.07,1.2-.06,1.41.05.67.58.28.42-.27h.35c0,.24.03.49-.09.7-.25.42-.95.28-1.03-.2-.05-.3-.04-1.15,0-1.47ZM39.01,24.18h1v.35s-.65.03-.65.03c.02.1-.02.53,0,.56.07.07.67-.19.53.35-.09.02-.51-.02-.53,0-.03.03.02.6,0,.71h.65s0,.35,0,.35h-1v-2.36ZM37.53,24.18c.65-.04,1.19-.03,1.06.79-.03.19-.23.34-.23.36,0,.02.23.22.23.3v.91h-.35v-.85c0-.17-.22-.16-.35-.15v1h-.35v-2.36ZM45.31,26.09c.04-.11.03-1.18.01-1.35-.03-.25-.13-.21-.36-.2v1.65c.12,0,.3.04.35-.1ZM43.69,25.17c.23-.08.18-.58.09-.63-.06-.04-.2,0-.29,0,.05.25-.15.75.2.64ZM42.11,26.25s.21.01.25-.01c.1-.06.1-1.69,0-1.75-.04-.02-.24-.02-.28,0-.1.06-.13,1.72.03,1.76ZM38.08,25.17c.23-.08.18-.58.09-.63-.06-.04-.21,0-.29,0,.05.25-.15.75.19.64ZM43.78,24.55c-.06-.04-.2,0-.29,0,.05.25-.15.75.2.64.23-.08.18-.58.09-.63ZM42.36,24.49s-.24-.02-.28,0c-.1.06-.13,1.72.03,1.76.05.01.21.01.25-.01.1-.06.1-1.69,0-1.75ZM38.17,24.55c-.06-.04-.21,0-.29,0,.05.25-.15.75.19.64.23-.08.18-.58.09-.63ZM43.78,24.55c-.06-.04-.2,0-.29,0,.05.25-.15.75.2.64.23-.08.18-.58.09-.63ZM42.36,24.49s-.24-.02-.28,0c-.1.06-.13,1.72.03,1.76.05.01.21.01.25-.01.1-.06.1-1.69,0-1.75ZM38.17,24.55c-.06-.04-.21,0-.29,0,.05.25-.15.75.19.64.23-.08.18-.58.09-.63ZM38.17,24.55c-.06-.04-.21,0-.29,0,.05.25-.15.75.19.64.23-.08.18-.58.09-.63ZM38.17,24.55c-.06-.04-.21,0-.29,0,.05.25-.15.75.19.64.23-.08.18-.58.09-.63Z"/>
      <path d="M45.31,26.09c-.04.14-.23.09-.35.1v-1.65c.23,0,.33-.05.36.2.02.17.03,1.24-.01,1.35Z"/>
      <path d="M38.08,25.17c-.35.12-.14-.39-.19-.64.08.01.23-.03.29,0,.09.05.14.55-.09.63Z"/>
      <path d="M43.69,25.17c-.35.12-.14-.39-.2-.64.08.01.23-.03.29,0,.09.05.14.55-.09.63Z"/>
      <path d="M42.36,26.24s-.2.02-.25.01c-.16-.04-.13-1.7-.03-1.76.04-.02.24-.02.28,0,.1.06.1,1.69,0,1.75Z"/>
      <path class="cls-1" d="M45.31,26.09c-.04.14-.23.09-.35.1v-1.65c.23,0,.33-.05.36.2.02.17.03,1.24-.01,1.35Z"/>
      <path class="cls-1" d="M38.08,25.17c-.35.12-.14-.39-.19-.64.08.01.23-.03.29,0,.09.05.14.55-.09.63Z"/>
      <path class="cls-1" d="M43.69,25.17c-.35.12-.14-.39-.2-.64.08.01.23-.03.29,0,.09.05.14.55-.09.63Z"/>
      <path class="cls-1" d="M42.36,26.24s-.2.02-.25.01c-.16-.04-.13-1.7-.03-1.76.04-.02.24-.02.28,0,.1.06.1,1.69,0,1.75Z"/>
    </g>
  </g>
</svg>