<?xml version="1.0" encoding="UTF-8"?>
<svg id="Capa_2" data-name="Capa 2" xmlns="http://www.w3.org/2000/svg" viewBox="0 0 424.24 110.28">
  <defs>
    <style>
      .cls-1 {
        fill: #132d15;
      }
    </style>
  </defs>
  <g id="Capa_1-2" data-name="Capa 1">
    <g>
      <path class="cls-1" d="M176.55.03c16.04,1.39,24.81,11.7,25.55,27.46l-23.05,1.65c-.08-4.61-1.29-8.71-5.95-8.79-2.48-.04-4.65,1.25-5.45,3.81-1.22,3.93-1.2,8.41-.05,12.38.76,2.64,2.96,4.06,5.57,3.97,4.44-.15,5.7-4.11,5.9-8.42l22.94-.28c-.25,12.86-5.99,24.51-19.06,27.95-6.55,1.73-13.45,1.76-19.97-.07-7.46-2.09-13.22-7.16-16.28-14.21-2.09-4.81-2.88-9.87-2.87-15.16.02-17.18,8.1-28.82,25.53-30.31h7.19Z"/>
      <path class="cls-1" d="M116.08,0c3.84.26,7.64.79,11.34,2.25,10.15,3.99,13.1,13.97,14.27,24.15l-22.76,1.83c-.52-3.5-1.39-8.48-4.48-8.83-2.78-.32-4.56,2.35-4.57,4.93l-.02,3.86,28.55,3.3c2.13,4.56,2.97,9.58,2.48,14.54s-3.35,8.91-7.66,11.27c-7.32,4.02-18.68,4.28-27.03,3.28-2.68-.32-5.17-.97-7.62-1.98-8.6-3.56-10.93-12.11-11.9-20.83l23.27-1.46c.47,2.7,1.12,5.61,3.4,6.34,1.28.42,2.79.34,3.79-.49.7-.58,1.2-1.75,1.2-2.69l-.02-4.64-30.62-3.49c-.56-11.58-.03-25.01,12.21-29.38,3.59-1.28,7.23-1.71,10.9-1.95h5.26Z"/>
      <path class="cls-1" d="M56.91,30.33c-.03,13.42-4.08,23.94-17.67,27.95-4.31,1.17-8.56,1.66-13.12,1.67l-26.12.02V1.11s28.03.05,28.03.05c4.68,0,9.03.91,13.3,2.47,11.57,4.53,15.61,14.76,15.58,26.69Z"/>
      <path class="cls-1" d="M400.3,37.22h14.85s9.09,22.75,9.09,22.75h-25.9s-8.32-20.27-8.32-20.27h-2.13s3.65,20.27,3.65,20.27h-24.46s0-58.86,0-58.86l27.92.04c4.86,0,9.38.8,13.96,2.08,8.46,2.67,14.9,8.64,14.01,17.86-1.05,10.86-12.75,13.49-22.57,14.15-.11.58-.13,1.31-.09,1.97Z"/>
      <polygon class="cls-1" points="294.33 1.11 318.84 1.12 309.31 59.97 272.09 59.97 262.55 1.12 286.98 1.11 288.99 42.28 292.5 42.28 294.33 1.11"/>
      <path class="cls-1" d="M244.16,59.93c-6.6,1.91-13.42,2.01-19.96.43-8.03-1.94-14.32-7.37-17.44-14.94-3.62-8.77-3.59-21.14.07-29.83,4.38-10.39,13.84-14.94,24.87-15.22,4.24-.11,8.19.22,12.21,1.47,7.61,2.36,13.33,7.88,16.1,15.36,3.14,8.46,3.06,20.07-.25,28.46-2.75,6.98-8.21,12.14-15.6,14.28ZM243.36,34.78c.91-3.02.84-6.23-.16-9.23-1.9-5.72-8.38-7.32-13.8-5.64-6.41,2-7.86,9.67-5.81,15.61.87,2.51,2.71,4.45,5.22,5.34,5.69,2.01,12.64.2,14.54-6.08ZM208.61,25.24c.34-1.87.91-3.7.91-5.52-3.27,6.66-3.2,14.56-.17,20.92-1.04-5.41-1.67-10.26-.74-15.39ZM211.48,39.42c-1.56-6.56-.94-12.79.8-19.69-3.43,5.8-3.71,13.45-.8,19.69ZM255.88,43.05c.72-.92,1.23-1.88,1.65-3.02,2.46-6.56,2.36-13.93-.58-20.32,0,1.8.82,3.35.91,5.07l.32,6.58c-.07,4.07-.92,7.78-2.29,11.67ZM212.96,33.57c-.2-4.51.5-8.55,1.45-12.89-2.96,5.23-3.32,11.66-.98,17.2.04-1.49-.24-2.8-.46-4.32ZM253.73,41.93c3.72-6.16,4.16-14.03,1.23-20.52,1.47,7.02.93,13.64-1.23,20.52ZM215.45,28.11l.86-5.74c-2.48,4.64-2.62,10.25-.47,15.03-.24-3.21-.59-6.11-.39-9.29ZM251.76,40.56c3.3-5.49,3.45-12.27,1.13-17.97l.54,5.08c.17,4.45-.57,8.61-1.67,12.88ZM218.2,26.53l.49-3.68c-2.38,4.33-2.65,9.61-.41,14.09-.47-3.66-.57-6.81-.09-10.42ZM251.3,35.98c1.05-4.29,1.12-8.9-.93-12.92.96,5.42.85,10.39-.54,15.72.72-.86,1.07-1.78,1.46-2.8ZM247.79,37.6c2.49-4.43,2.34-9.66.26-14.01l.54,4.86c.34,3.08-.64,6-.79,9.15ZM220.34,35.73c-.26-4.14-.19-7.47.27-11.24-1.88,3.55-1.84,7.87-.27,11.24ZM245.64,36.62c1.93-3.68,2.12-8.14.25-11.86.53,4.06.35,7.8-.25,11.86Z"/>
      <polygon class="cls-1" points="358.39 34.16 344.29 34.18 344.33 39.01 363.89 39.01 361.68 59.97 320.97 59.97 320.97 1.12 361.68 1.11 363.89 22.01 344.33 22.01 344.31 27.52 358.38 27.52 358.39 34.16"/>
      <polygon class="cls-1" points="83.47 59.97 60.15 59.98 60.14 1.12 83.47 1.12 83.47 59.97"/>
      <path class="cls-1" d="M220.18,98.88c2.03.45,3.55,1.33,3.89,3.15s-.52,3.6-2.4,4.3c-1,.37-2.27.63-3.39.63h-7.16s0-15.61,0-15.61h6.92c2.73,0,5.09,1.6,4.89,4.36-.11,1.5-1.04,2.47-2.75,3.17ZM218.62,98.16c1.6-.06,2.47-1.53,2.39-2.81s-1.15-2.41-2.62-2.44l-5.35-.09v5.53s5.58-.19,5.58-.19ZM222.18,102.53c-.03-.88-.58-1.59-1.41-2.2-.92-.29-1.99-.6-2.96-.6h-4.77s0,5.74,0,5.74h4.98c2.27-.01,4.23-.93,4.16-2.94Z"/>
      <path class="cls-1" d="M100.5,101.48c-.11,2.58-.9,5.52-3.02,5.78-1.2.14-2.48-.14-3.01-1.23l-1.59-3.23c-.38-.78-.82-1.99-1.63-2.39s-2.04-.28-2.93-.19v6.75s-1.92-.01-1.92-.01v-15.6s6.68,0,6.68,0c2.82,0,5.38,1.22,5.66,3.85.33,3.1-2.27,4.78-5.52,4.96l2.31,4.37c.23.43.85.95,1.27,1,1.33.16,1.96-1.99,2.09-4.06h1.61ZM96.91,95.36c-.15-1.21-1.29-2.4-2.77-2.43l-5.82-.11v5.85c3.94.18,9.06.37,8.59-3.31Z"/>
      <path class="cls-1" d="M289.66,101.43c-.06,2.49-.85,5.53-2.94,5.81-4.44.6-4-5.79-6.44-6.9-.73-.33-1.93-.21-2.78-.17v6.79s-1.92-.02-1.92-.02v-15.61s7.22.03,7.22.03c1.17,0,2.53.44,3.47,1.08,2.16,1.48,2.24,4.64.26,6.29-1.15.96-2.65,1.29-4.24,1.41,1.81,2.16,2.49,6.47,4.38,5.16,1.16-.81,1.25-2.43,1.33-3.81l1.65-.08ZM285.38,97.51c.88-.86.89-2.05.42-3.02-.33-.69-1.43-1.53-2.44-1.55l-5.87-.11v5.88s4.34,0,4.34,0c1.21,0,2.63-.3,3.55-1.19Z"/>
      <path class="cls-1" d="M167.62,98.95c.11,5.37-4.27,8-9.3,8.01l-5.18.02v-15.64s5.66.03,5.66.03c1.61,0,3.24.48,4.69,1.04,2.54,1.3,4.07,3.56,4.13,6.55ZM165.63,98.94c-.18-5.46-5.38-6.5-10.56-6.07v12.59c2.32.06,4.41.09,6.39-.56,2.66-.87,4.26-3.06,4.17-5.96Z"/>
      <polygon class="cls-1" points="335.55 107.09 334.28 107.03 324.14 94.13 324.08 106.95 322.23 106.96 322.23 91.38 324.22 91.42 333.7 103.54 333.75 91.38 335.55 91.37 335.55 107.09"/>
      <path class="cls-1" d="M356.8,99.17c-.03,5.13-4.25,7.75-9,7.77l-5.48.03v-15.62s5.47,0,5.47,0c1.76,0,3.52.5,5.08,1.14,2.52,1.38,3.95,3.71,3.93,6.68ZM354.78,99.18c.11-2.98-1.79-5.22-4.54-5.94-1.88-.49-3.79-.41-6-.39v12.62c2.14.05,4.27.1,6.28-.52,2.59-.79,4.33-2.91,4.26-5.76Z"/>
      <path class="cls-1" d="M146.37,106.96c-.22.1-.78.15-1.19.15l-10.21-13-.06,12.87-1.85-.04v-15.55c.72-.06,1.51-.04,2.06.11l9.42,12,.06-12.13h1.78s0,15.58,0,15.58Z"/>
      <path class="cls-1" d="M371.78,106.89c-3.36,1.06-6.73-.23-9.13-2.5l.25-1.74c2.33,2.08,5.29,3.66,8.2,2.73,1.16-.37,1.79-1.28,1.75-2.38-.04-.96-.77-1.91-1.88-2.22l-5.03-1.39c-2.03-.56-3.19-2.37-3.12-4.27s1.44-3.47,3.49-3.93c3.07-.69,6.18.34,8.42,2.54l-.47,1.63c-3.26-3.28-8.88-3.67-9.56-.8-.23.99.17,2.17,1.16,2.76,2.4,1.42,5.34,1.15,7.5,2.77,1.24.94,1.56,2.45,1.21,4.01-.25,1.09-1.3,2.32-2.79,2.79Z"/>
      <path class="cls-1" d="M182.56,106.9c-3.32,1.04-6.74-.25-9.08-2.54l.22-1.71c2.31,2.03,5.26,3.67,8.17,2.75,1.07-.34,1.78-1.2,1.82-2.15.04-1.01-.63-2.1-1.77-2.41l-5.21-1.45c-2.02-.57-3.15-2.34-3.08-4.25s1.42-3.46,3.43-3.92c3.06-.69,6.04.24,8.4,2.4-.07.62-.22,1.26-.41,1.73-3.34-3.37-9.05-3.58-9.55-.7-.73,4.24,6.28,3.16,9.02,5.76,1.03.98,1.2,2.41.85,3.77-.28,1.12-1.37,2.28-2.83,2.73Z"/>
      <polygon class="cls-1" points="314.72 99.84 306.91 99.84 306.88 105.46 316.05 105.48 316.05 106.97 304.96 106.97 304.96 91.34 315.73 91.34 315.77 92.84 306.89 92.84 306.89 98.35 314.71 98.34 314.72 99.84"/>
      <polygon class="cls-1" points="125.58 99.84 117.7 99.85 117.72 105.48 126.86 105.47 126.86 106.97 115.79 106.97 115.79 91.35 126.51 91.34 126.58 92.84 117.71 92.84 117.71 98.35 125.57 98.34 125.58 99.84"/>
      <polygon class="cls-1" points="79.2 98.52 79.29 100.02 71.29 100.02 71.29 106.95 69.43 106.97 69.43 91.35 80.2 91.34 80.24 92.84 71.29 92.84 71.29 98.53 79.2 98.52"/>
      <polygon class="cls-1" points="268.37 98.52 268.42 100.02 260.47 100.02 260.48 106.96 258.61 106.95 258.61 91.35 269.36 91.34 269.38 92.84 260.47 92.84 260.47 98.53 268.37 98.52"/>
      <path class="cls-1" d="M53.33,101.5l.04,1.51h-3.06s0,3.95,0,3.95h-1.75s-.01-3.94-.01-3.94h-8.54c-.1-.93.12-1.42.6-1.97l7.37-8.24,1.96.05-7.59,8.62,6.29.05v-3.54s1.66,0,1.66,0v3.54s3.03-.02,3.03-.02Z"/>
      <path class="cls-1" d="M242.6,91.48l-6.1,9.8-.02,5.68h-1.86s.02-5.53.02-5.53l-6.26-10.02,2.16-.06,5,8.17,4.89-8.08c.58-.07,1.07-.08,2.17.05Z"/>
      <polygon class="cls-1" points="298.02 106.97 296.08 106.98 296.08 91.39 298.02 91.35 298.02 106.97"/>
      <polygon class="cls-1" points="108.84 106.92 106.92 106.95 106.92 91.38 108.83 91.39 108.84 106.92"/>
      <path class="cls-1" d="M193.17,110.24l-1.22.04,1.04-3.1c-.97-.37-1.46-.9-1.34-1.76.09-.64.91-1.25,1.51-1.22,2.29.11,1.27,3.29,0,6.04Z"/>
      <path class="cls-1" d="M382.17,104.21c.77-.08,1.54.59,1.59,1.23.07.83-.46,1.55-1.17,1.68-.78.14-1.57-.41-1.7-1.02-.2-.94.28-1.78,1.28-1.89Z"/>
    </g>
  </g>
</svg>