<?xml version="1.0" encoding="UTF-8"?>
<svg id="Capa_2" data-name="Capa 2" xmlns="http://www.w3.org/2000/svg" viewBox="0 0 362.85 61.67">
  <defs>
    <style>
      .cls-1 {
        fill: #132d15;
      }
    </style>
  </defs>
  <g id="Capa_1-2" data-name="Capa 1">
    <g>
      <path class="cls-1" d="M284.74,55.5c-11.89,3.43-23.22,5.34-35.34,5.75-22.06.74-35.87.89-57.68-2.94-13.72-2.41-27.01-3.85-40.99-3.13-14.64.85-28.25,3.35-43.02,5.36,18.16-6.56,37.22-9.4,56.52-10.51,11.98-.69,23.13.62,34.88,2l32.63,3.84c15.08,1.78,29.77,1.18,44.64-1.54,6.49-1.19,12.43-2.13,19.26-2.71-3.39,2.18-6.84,2.7-10.91,3.87Z"/>
      <path class="cls-1" d="M33.34,23.01c.92,10.68-6.33,18.77-16.91,19.57-5.36.41-10.72.23-16.42.24V7.35c12.4-.26,31.79-2.16,33.33,15.66ZM24.37,24.35c-.21-4.56-2.71-8.11-7.09-9.14-2.74-.64-5.77-.62-8.86-.46l.05,20.65c2.92,0,5.43,0,7.92-.4,5.3-.87,8.22-5.25,7.98-10.65Z"/>
      <path class="cls-1" d="M190.38,42.46c-2.27-.93-3.79-3.83-3.83-6.12l-.22-12.36-9.38.1.24,11.15c.04,1.99,3.25,2.01,5.31,1.6l.07,5.86c-3.68.98-7.13,1.26-10.52-.66-1.76-1-3.06-3.96-3.08-6.02l-.14-11.91-3.93-.22v-5.92s3.88-.21,3.88-.21l.17-6.46,7.95-.02.15,6.51,9.21.08.29-6.6,7.89.02.2,6.52,5.74.08v6.09s-5.84.09-5.84.09c-.02,4.04-.07,7.47.33,11.6.13,1.29,3.16,1.52,5.01,1.19l.31,5.75c-3.14.98-6.31,1.3-9.8-.14Z"/>
      <path class="cls-1" d="M127.53,32.38l5.81,5.44c-3.5,4.53-9.06,6.12-14.79,5.94-10.46-.34-18.08-8.16-18.21-18.53-.11-8.63,5.12-16.01,13.63-18.12,6.69-1.66,13.6-.71,19.13,4.3l-5.79,5.92c-3.25-3.52-7.73-3.95-11.78-2.16-3.64,1.61-5.83,5.69-5.77,10.08.06,4.3,2.24,8.17,5.63,9.65,4.3,1.86,8.69,1.3,12.14-2.51Z"/>
      <path class="cls-1" d="M60.07,19.77c5.05,3.56,6.19,9.82,4.36,15.2-1.8,5.31-7.24,8.71-13.3,8.64-5.99-.07-11.16-3.43-12.92-8.49-1.93-5.57-.65-11.8,4.25-15.31s12.26-3.8,17.61-.04ZM57.25,30.44c.1-4.18-3.01-6.81-6.49-6.54s-5.62,3.24-5.36,6.91c.24,3.45,2.78,5.91,6.02,5.89s5.74-2.52,5.83-6.27Z"/>
      <path class="cls-1" d="M226.16,20.07c4.87,3.75,5.84,10.04,3.8,15.36-1.91,5-7.22,8.25-13.04,8.21s-11.23-3.44-12.99-8.48c-2.04-5.83-.53-12.29,4.71-15.69,5.23-3.4,12.38-3.35,17.53.61ZM222.94,30.45c.1-4.17-3.01-6.8-6.43-6.55s-5.64,3.23-5.4,6.91c.22,3.44,2.74,5.96,6.06,5.9,3.06-.05,5.68-2.5,5.77-6.26Z"/>
      <path class="cls-1" d="M285.71,34.89c1.89.65,4.37,2.27,6.06,3.55-4.5,6.43-16.28,6.85-21.82,1.57s-5.22-15.49,1.26-20.31c5.14-3.83,12.65-3.49,17.52.52,3.6,2.97,4.28,7.77,3.99,12.3l-18.77.14c.61,2.58,2.4,4.05,4.35,4.47,2.73.59,4.63-.22,7.42-2.25ZM284.65,27.4c-.75-4.37-3.15-4.87-6.05-4.57-2.02.21-4.3,1.7-4.56,4.63l10.62-.07Z"/>
      <path class="cls-1" d="M156.94,19.34c5.37,3.38,6.91,9.58,5.07,15.46-1.54,4.93-6.62,8.6-12.56,8.82-6.23.23-11.88-3.09-13.79-8.7s-.46-12.08,4.78-15.47c4.85-3.14,11.4-3.33,16.5-.11ZM154.74,30.94c.38-4.09-2.51-7.2-6.18-7.07-3.45.12-5.89,3.1-5.67,6.8.2,3.34,2.52,5.93,5.71,6.04s5.8-2.16,6.14-5.77Z"/>
      <path class="cls-1" d="M79.02,27.39l-.31,15.39-8.21.03.02-24.99,7.67.04.64,2.87c2.66-3.22,6.64-4.33,10.65-3.06,3.25,1.03,5.8,4.69,5.8,8.79l.02,16.4-8.28-.07-.05-14.52c0-2.25-1.41-4.16-3.37-4.36-1.45-.15-4.53,1.12-4.58,3.48Z"/>
      <path class="cls-1" d="M244.71,27.42l-.29,15.36h-8.22s.02-24.94.02-24.94l7.69.02.64,2.88c2.65-3.3,6.63-4.31,10.56-3.06,3.34,1.05,5.84,4.68,5.84,8.8l.02,16.39-8.3-.12-.04-14.42c0-2.25-1.37-4.2-3.27-4.4-1.49-.16-4.62,1.09-4.67,3.49Z"/>
      <path class="cls-1" d="M339.2,44.97c-2.56.4.13,7.86-7.44,13.3-1.89,1.36-4.85,1.25-5,.25-.04-.28.37-.68.68-.94,4.29-3.71,6.02-6.3,5.86-12.41-3.23-.68-5.91-1.82-8.34-3.8-3.02.07-5.8-.57-8.39-1.94-5.75-3.41-8.53-9.72-7.58-16.32.94-6.47,5.35-11.46,11.64-13.22,3.62-9.06,14.59-12.36,22.85-7.99,3.53,1.65,6.04,4.52,7.44,8.1,7.05,1.7,10.96,6.87,11.81,13.88.75,6.24-2.02,12.18-7.53,15.46-2.54,1.51-5.53,1.97-8.58,2.1-2.13,1.84-4.53,3.06-7.43,3.51ZM336.69,22.38c3.45,4.86,3.43,9.55,2.81,15.44.94-1.28,1.67-2.53,2.8-3.45,2.67-2.17,6.03-3.64,9.43-3.34.23,2.52-1.3,3.99-1.94,6.35,5.03-1.22,8.57-5.6,8.91-10.56.47-6.82-3.55-12.9-10.78-13.13-1.08-4.78-4.71-8.32-9.12-9.4-4.8-1.18-9.91.48-12.87,4.33-1.14,1.48-1.76,3.16-2.5,4.98-6.77.68-11.38,6.63-10.49,13.5.62,4.82,3.69,8.94,8.69,10.22l-1.27-3.34c-.37-.97-.52-2.03-.21-3.04,5.13.09,9.2,2.54,11.97,6.86l-.34-4.04c-.45-5.38,3.06-13.98,4.91-11.38Z"/>
    </g>
  </g>
</svg>