<?xml version="1.0" encoding="UTF-8"?>
<svg id="Capa_2" data-name="Capa 2" xmlns="http://www.w3.org/2000/svg" viewBox="0 0 279.91 68.28">
  <defs>
    <style>
      .cls-1 {
        fill: #132d15;
      }
    </style>
  </defs>
  <g id="Capa_2-2" data-name="Capa 2">
    <g id="Capa_1-2" data-name="Capa 1-2">
      <g>
        <path class="cls-1" d="M38.8,1.84c4.64,1.53,8.41,4.33,11.28,8.4,2.31,3.29,3.88,6.86,4.72,10.69s1.26,7.49,1.26,10.96c0,8.8-1.77,16.26-5.3,22.37-4.8,8.24-12.2,12.35-22.21,12.35H0V.4h28.55c4.11.06,7.52.54,10.25,1.44ZM13.43,11.9v43.21h12.78c6.54,0,11.1-3.22,13.68-9.66,1.41-3.53,2.11-7.74,2.11-12.62,0-6.74-1.06-11.91-3.17-15.52-2.11-3.61-6.32-5.41-12.62-5.41,0,0-12.78,0-12.78,0Z"/>
        <path class="cls-1" d="M87.59,16.51c.16.02.53.04,1.1.07v13.12c-.81-.09-1.53-.15-2.16-.18-.63-.03-1.14-.05-1.53-.05-5.15,0-8.61,1.68-10.38,5.03-.99,1.89-1.48,4.79-1.48,8.71v23.4h-12.89V17.65h12.22v8.53c1.98-3.26,3.7-5.5,5.17-6.69,2.4-2.01,5.51-3.01,9.34-3.01.24,0,.44,0,.61.02h0Z"/>
        <path class="cls-1" d="M105.99,11.81h-12.98V0h12.98s0,11.81,0,11.81ZM93.01,17.65h12.98v48.96h-12.98s0-48.96,0-48.96Z"/>
        <path class="cls-1" d="M149.55,20.46c3.21,2.65,4.81,7.05,4.81,13.18v32.97h-13.12v-29.78c0-2.58-.34-4.55-1.03-5.93-1.25-2.52-3.63-3.77-7.13-3.77-4.31,0-7.27,1.84-8.87,5.53-.83,1.95-1.25,4.43-1.25,7.46v26.5h-12.8V17.74h12.4v7.14c1.64-2.52,3.19-4.33,4.65-5.44,2.62-1.98,5.95-2.96,9.97-2.96,5.04,0,9.16,1.33,12.37,3.98h0Z"/>
        <path class="cls-1" d="M159.05.63h12.58v35.72l16.15-18.47h15.92l-17.55,18.24,18.23,30.5h-15.58l-11.86-20.92-5.3,5.51v15.41h-12.58V.63h0Z"/>
        <path class="cls-1" d="M244.1,60.63c-4.13,5.1-10.41,7.65-18.82,7.65s-14.69-2.55-18.82-7.65-6.2-11.24-6.2-18.42,2.07-13.18,6.2-18.36c4.13-5.18,10.41-7.76,18.82-7.76s14.69,2.59,18.82,7.76c4.13,5.18,6.2,11.3,6.2,18.36s-2.07,13.32-6.2,18.42ZM233.86,53.55c2.01-2.66,3.01-6.44,3.01-11.35s-1-8.68-3.01-11.33-4.88-3.97-8.62-3.97-6.63,1.32-8.65,3.97c-2.02,2.65-3.03,6.42-3.03,11.33s1.01,8.69,3.03,11.35,4.9,3.99,8.65,3.99,6.62-1.33,8.62-3.99Z"/>
        <path class="cls-1" d="M276.86,36.89c-1.98,1.91-4.35,2.87-7.12,2.87s-5.27-.98-7.23-2.94c-1.96-1.96-2.94-4.37-2.94-7.23s1.06-5.44,3.17-7.41c1.99-1.84,4.32-2.76,7-2.76s5.2.99,7.19,2.98,2.98,4.39,2.98,7.19-1.02,5.32-3.05,7.3h0ZM263.76,23.69c-1.62,1.66-2.43,3.62-2.43,5.89s.82,4.36,2.47,6c1.64,1.65,3.62,2.47,5.94,2.47s4.28-.83,5.92-2.48c1.64-1.67,2.46-3.66,2.46-5.99s-.81-4.23-2.44-5.89c-1.65-1.69-3.63-2.54-5.94-2.54s-4.33.85-5.98,2.54ZM265.28,35.24v-11.28h3.14c1.39,0,2.17.01,2.33.02.89.06,1.63.26,2.22.58,1,.55,1.5,1.45,1.5,2.69,0,.95-.26,1.63-.79,2.05s-1.18.67-1.95.76c.71.15,1.24.37,1.6.65.66.54.99,1.38.99,2.53v1.01c0,.11,0,.22.02.33.01.11.04.22.08.33l.1.32h-2.82c-.09-.36-.15-.88-.19-1.56-.03-.68-.09-1.14-.19-1.38-.15-.4-.42-.67-.83-.83-.22-.09-.56-.15-1.01-.18l-.65-.04h-.62v3.99h-2.95.02ZM270.67,26.19c-.41-.16-.98-.23-1.71-.23h-.72v3.27h1.15c.69,0,1.23-.14,1.62-.41.39-.28.58-.72.58-1.34s-.3-1.04-.91-1.28h0Z"/>
      </g>
    </g>
  </g>
</svg>