<?xml version="1.0" encoding="UTF-8"?>
<svg id="Capa_2" data-name="Capa 2" xmlns="http://www.w3.org/2000/svg" viewBox="0 0 445.7 164.55">
  <defs>
    <style>
      .cls-1 {
        fill: #132d15;
      }
    </style>
  </defs>
  <g id="Capa_1-2" data-name="Capa 1">
    <polygon class="cls-1" points="30.73 163.81 30.73 148.75 28.82 148.75 28.82 148.33 34.87 148.33 34.87 148.75 32.74 148.75 32.74 156.17 39.74 156.17 39.74 148.75 37.62 148.75 37.62 148.33 43.66 148.33 43.66 148.75 41.76 148.75 41.76 163.81 43.66 163.81 43.66 164.23 37.62 164.23 37.62 163.81 39.74 163.81 39.74 156.6 32.74 156.6 32.74 163.81 34.87 163.81 34.87 164.23 28.82 164.23 28.82 163.81 30.73 163.81"/>
    <path class="cls-1" d="M55.34,156.28c0-4.51,2.69-8.16,6.78-8.16s6.79,3.65,6.79,8.16-2.48,8.16-6.79,8.16-6.78-3.65-6.78-8.16M57.77,156.28c0,3.86.66,7.8,4.35,7.8s4.35-3.94,4.35-7.8-.87-7.8-4.35-7.8-4.35,3.94-4.35,7.8"/>
    <path class="cls-1" d="M105.18,163.81v-15.06h-1.91v-.42h6.26c3.84,0,5.51,1.7,5.51,4.45s-1.67,4.45-5.51,4.45h-2.33v6.57h1.91v.42h-5.83v-.42h1.91ZM107.19,148.75v8.06h2.33c2.03,0,3.18-2.14,3.18-4.03s-1.15-4.03-3.18-4.03h-2.33Z"/>
    <polygon class="cls-1" points="128.94 163.81 128.94 148.75 126.6 148.75 126.6 148.33 133.5 148.33 133.5 148.75 130.95 148.75 130.95 163.81 133.5 163.81 133.5 164.23 126.6 164.23 126.6 163.81 128.94 163.81"/>
    <path class="cls-1" d="M150.99,163.81v-15.06h-2.12c-2.48,0-2.76,1.66-2.76,4.35h-.42v-4.77h12.62v4.77h-.43c0-2.69-.28-4.35-2.76-4.35h-2.12v15.06h2.33v.42h-6.68v-.42h2.33Z"/>
    <path class="cls-1" d="M169.89,163.81l5.6-15.8h.42l5.47,15.8h1.64v.42h-6.15v-.42h2.21l-1.48-4.56h-5.58l-1.59,4.56h2.42v.42h-4.66v-.42h1.72ZM172.16,158.82h5.3l-2.57-7.91-2.73,7.91Z"/>
    <path class="cls-1" d="M194.8,164.23v-.42h1.91v-15.06h-1.91v-.42h5.83v.42h-1.91v15.06h3.28c3.33,0,3.61-1.65,3.61-4.35h.42v4.77h-11.23Z"/>
    <polygon class="cls-1" points="220.25 163.81 220.25 148.75 217.92 148.75 217.92 148.33 224.81 148.33 224.81 148.75 222.26 148.75 222.26 163.81 224.81 163.81 224.81 164.23 217.92 164.23 217.92 163.81 220.25 163.81"/>
    <path class="cls-1" d="M242.3,163.81v-15.06h-2.12c-2.48,0-2.76,1.66-2.76,4.35h-.42v-4.77h12.62v4.77h-.43c0-2.69-.28-4.35-2.76-4.35h-2.12v15.06h2.33v.42h-6.68v-.42h2.33Z"/>
    <polygon class="cls-1" points="268.18 163.81 268.18 156.6 263.26 148.75 261.72 148.75 261.72 148.33 267.86 148.33 267.86 148.75 265.58 148.75 269.92 155.71 274.12 148.75 271.79 148.75 271.79 148.33 276.24 148.33 276.24 148.75 274.65 148.75 270.2 156.11 270.2 163.81 272.32 163.81 272.32 164.23 266.27 164.23 266.27 163.81 268.18 163.81"/>
    <path class="cls-1" d="M318.77,157.97v.42h-1.27v2.33c-.64,1.34-2.37,3.71-5.83,3.71-4.41,0-6.89-3.43-6.89-8.16s2.9-8.16,7.21-8.16c1.42,0,2.73.53,3.64,1.44l1.02-1.23h.32v4.35h-.42c-.21-2.37-2.14-4.03-4.35-4.03-3.69,0-4.98,3.77-4.98,7.63s.87,7.74,4.45,7.74c2.63,0,3.39-1.97,3.6-2.44v-3.18h-2.22v-.42h5.72Z"/>
    <path class="cls-1" d="M332.35,163.81v-15.06h-2.33v-.42h6.99c3.2,0,5.3,1.17,5.3,3.92,0,2.46-1.51,3.62-4.29,3.84,6.3.49,2.4,7.74,4.92,7.74.45,0,.74-.08,1.04-.21l.13.4c-.34.19-1.15.32-1.91.32-4.94,0-.08-8.06-5.3-8.06h-2.54v7.53h2.33v.42h-6.68v-.42h2.33ZM334.36,148.75v7.1h2.65c2.04,0,3.18-1.29,3.18-3.6s-1.15-3.5-3.18-3.5h-2.65Z"/>
    <path class="cls-1" d="M355.68,156.28c0-4.51,2.69-8.16,6.78-8.16s6.79,3.65,6.79,8.16-2.48,8.16-6.79,8.16-6.78-3.65-6.78-8.16M358.12,156.28c0,3.86.66,7.8,4.35,7.8s4.35-3.94,4.35-7.8-.87-7.8-4.35-7.8-4.35,3.94-4.35,7.8"/>
    <path class="cls-1" d="M386.96,148.33v.42h-2.12v10.39c0,2.8.66,4.88,3.71,4.88,2.42,0,4.03-1.44,4.03-4.66v-10.6h-1.8v-.42h4.13v.42h-1.91v10.6c0,3.5-1.53,5.2-4.88,5.2-3.67,0-5.3-1.53-5.3-5.2v-10.6h-1.91v-.42h6.04Z"/>
    <path class="cls-1" d="M408.6,163.81v-15.06h-1.91v-.42h6.26c3.84,0,5.51,1.7,5.51,4.45s-1.67,4.45-5.51,4.45h-2.33v6.57h1.91v.42h-5.83v-.42h1.91ZM410.61,148.75v8.06h2.33c2.03,0,3.18-2.14,3.18-4.03s-1.15-4.03-3.18-4.03h-2.33Z"/>
    <path class="cls-1" d="M81.32,164.44v-4.35h.43c.42,2.1,1.82,3.99,4.56,3.99,2.25,0,3.6-1.25,3.6-3.35,0-4.35-8.38-3.18-8.38-8.69,0-2.33,2.04-3.92,4.39-3.92,1.42,0,2.61.45,3.41,1.38l.89-1.38h.32v4.35h-.43c-.42-2.52-1.99-3.86-3.98-3.86s-3.12,1.12-3.12,2.8c0,3.92,8.38,2.86,8.38,8.58,0,2.76-1.89,4.56-4.88,4.56-1.91,0-3.16-.64-4.01-1.65l-.87,1.55h-.32Z"/>
    <polygon class="cls-1" points="224.34 42.28 200.74 42.28 200.74 44.3 211.89 44.3 211.89 102.36 200.74 102.36 200.74 104.39 235.49 104.39 235.49 102.36 224.34 102.36 224.34 42.28"/>
    <path class="cls-1" d="M49.88,44.42c-2.66-2.17-5.53-3.74-8.62-4.7-3.09-.97-5.98-1.45-8.68-1.45-4.54,0-8.79.94-12.74,2.82-3.96,1.88-7.41,4.37-10.35,7.46-2.95,3.09-5.26,6.63-6.95,10.64-1.69,4.01-2.54,8.13-2.54,12.37,0,4.93.82,9.39,2.46,13.4,1.64,4,3.96,7.45,6.95,10.35,2.99,2.9,6.54,5.12,10.64,6.66,4.11,1.55,8.57,2.32,13.39,2.32s8.76-.75,11.8-2.25c3.04-1.49,5.46-3.23,7.24-5.21,1.78-1.97,3.09-3.96,3.91-5.93.82-1.98,1.38-3.5,1.67-4.57l-2.17-.43c-.39,1.15-.97,2.65-1.74,4.48-.77,1.83-1.95,3.65-3.55,5.42-1.59,1.79-3.76,3.31-6.52,4.57-2.75,1.25-6.25,1.89-10.49,1.89s-7.65-.92-10.21-2.76c-2.56-1.83-4.49-4.15-5.79-6.94-1.31-2.81-2.15-5.94-2.54-9.42-.39-3.47-.58-6.8-.58-9.99,0-1.54.02-2.82.07-3.84.05-1.02.07-2,.07-2.97h44.6c0-5.31-.89-9.75-2.68-13.32-1.79-3.58-4-6.45-6.66-8.62M44.74,60.56c0,1.16-.1,2.41-.29,3.76H14.77c.2-3.18.6-6.22,1.23-9.12.62-2.9,1.57-5.46,2.82-7.67,1.25-2.22,2.94-3.98,5.07-5.28,2.12-1.31,4.83-1.96,8.1-1.96,1.83,0,3.55.27,5.14.8,1.59.53,2.95,1.43,4.06,2.68,1.11,1.26,1.98,2.95,2.6,5.07.63,2.12.94,4.82.94,8.11v3.62Z"/>
    <polygon class="cls-1" points="327.92 102.37 339.07 102.37 339.07 0 362.67 0 362.67 2.03 351.52 2.03 351.52 102.37 362.67 102.37 362.67 104.39 327.92 104.39 327.92 102.37"/>
    <path class="cls-1" d="M137.72,96.98c3.28,2.55,6.9,4.41,10.86,5.57,3.96,1.16,7.77,1.74,11.44,1.74,4.82,0,8.76-.75,11.79-2.25,3.05-1.49,5.46-3.23,7.24-5.21,1.78-1.97,3.09-3.96,3.9-5.93.82-1.98,1.38-3.5,1.67-4.57l-2.17-.43c-.38,1.15-.96,2.65-1.74,4.48-.77,1.83-1.96,3.65-3.55,5.43-1.59,1.78-3.76,3.31-6.51,4.57-2.75,1.25-6.25,1.88-10.5,1.88-3.96,0-7.17-.8-9.63-2.39-2.46-1.59-4.39-3.76-5.79-6.51-1.4-2.76-2.37-5.96-2.9-9.63-.53-3.67-.8-7.58-.8-11.73,0-7.34.6-13.13,1.81-17.37,1.21-4.25,2.75-7.43,4.64-9.56,1.88-2.12,3.95-3.45,6.23-3.98,2.27-.54,4.46-.8,6.59-.8,2.9,0,5.45.61,7.67,1.81,2.22,1.21,3.33,2.92,3.33,5.13,0,1.26-.34,2.86-1.01,4.78-.68,1.93-1.02,3.57-1.02,4.92,0,1.74.75,2.96,2.24,3.69,1.49.72,3.06,1.09,4.7,1.09,2.41,0,4.27-.66,5.58-1.96,1.3-1.3,1.95-2.97,1.95-4.99,0-2.99-.75-5.52-2.25-7.6-1.5-2.08-3.38-3.77-5.64-5.07-2.27-1.3-4.78-2.26-7.53-2.89-2.75-.63-5.43-.94-8.03-.94-4.63,0-9,.85-13.1,2.53-4.1,1.69-7.68,4.03-10.71,7.02-3.04,2.99-5.46,6.52-7.24,10.57-1.79,4.06-2.68,8.45-2.68,13.18,0,6.08,1.04,11.2,3.12,15.35,2.07,4.15,4.75,7.51,8.03,10.07"/>
    <path class="cls-1" d="M412.66,38.23c-18.25,0-33.04,14.8-33.04,33.04s14.79,33.04,33.04,33.04,33.04-14.8,33.04-33.04-14.79-33.04-33.04-33.04"/>
    <polygon class="cls-1" points="110.2 102.36 99.05 102.36 99.05 0 75.45 0 75.45 2.02 86.6 2.02 86.6 102.36 75.45 102.36 75.45 104.39 110.2 104.39 110.2 102.36"/>
    <path class="cls-1" d="M302.01,44.42c-2.66-2.17-5.53-3.74-8.62-4.7-3.09-.97-5.99-1.45-8.69-1.45-4.54,0-8.78.94-12.74,2.82-3.96,1.88-7.41,4.37-10.35,7.46-2.95,3.09-5.26,6.63-6.95,10.64-1.69,4.01-2.53,8.13-2.53,12.37,0,4.93.82,9.39,2.46,13.4,1.64,4,3.96,7.45,6.95,10.35,2.99,2.9,6.54,5.12,10.64,6.66,4.1,1.55,8.57,2.32,13.39,2.32s8.76-.75,11.8-2.25c3.04-1.49,5.46-3.23,7.24-5.21,1.78-1.97,3.09-3.96,3.91-5.93.82-1.98,1.37-3.5,1.67-4.57l-2.17-.43c-.39,1.15-.97,2.65-1.74,4.48-.77,1.83-1.95,3.65-3.55,5.42-1.59,1.79-3.76,3.31-6.51,4.57-2.75,1.25-6.25,1.89-10.5,1.89s-7.65-.92-10.21-2.76c-2.56-1.83-4.49-4.15-5.79-6.94-1.3-2.81-2.15-5.94-2.53-9.42-.39-3.47-.58-6.8-.58-9.99,0-1.54.02-2.82.07-3.84.04-1.02.07-2,.07-2.97h44.59c0-5.31-.89-9.75-2.68-13.32-1.79-3.58-4.01-6.45-6.66-8.62M296.87,60.56c0,1.16-.1,2.41-.29,3.76h-29.68c.19-3.18.6-6.22,1.23-9.12.63-2.9,1.57-5.46,2.82-7.67,1.25-2.22,2.94-3.98,5.07-5.28,2.12-1.31,4.82-1.96,8.11-1.96,1.83,0,3.54.27,5.14.8,1.59.53,2.94,1.43,4.05,2.68,1.11,1.26,1.98,2.95,2.6,5.07.63,2.12.94,4.82.94,8.11v3.62Z"/>
  </g>
</svg>