<?xml version="1.0" encoding="UTF-8"?>
<svg id="Capa_2" data-name="Capa 2" xmlns="http://www.w3.org/2000/svg" viewBox="0 0 72.03 22.85">
  <defs>
    <style>
      .cls-1 {
        fill: #132d15;
      }
    </style>
  </defs>
  <g id="Capa_1-2" data-name="Capa 1">
    <g>
      <path class="cls-1" d="M37.21,18.51s.06.03.07.04l1.93,2.26,1.97-2.3h.57s.05.05.05.05v4.23h-.64v-3.41l-1.96,2.24-1.99-2.24v3.41h-.6v-4.28c.18.02.42-.03.59,0Z"/>
      <path class="cls-1" d="M44.94,18.49c.8-.08,1.61.07,2.28.51l-.38.38c-.59-.42-1.87-.68-2.47-.19-.31.26-.25.69.09.9.75.47,2.85.23,2.93,1.48.04.53-.4.94-.86,1.11-.98.37-2.36.12-3.18-.51-.01-.05.3-.35.38-.35.04,0,.55.31.67.36.56.23,1.99.41,2.29-.27.23-.53-.24-.76-.67-.88-.73-.22-2.22-.22-2.47-1.11s.66-1.35,1.38-1.43Z"/>
      <path class="cls-1" d="M24.31,19.02v1.47h2.91v.47h-2.91v1.79s-.05.05-.05.05h-.57s-.05-.05-.05-.05v-4.18s.05-.05.05-.05h3.81c.08,0,.08.5,0,.5h-3.19Z"/>
      <g>
        <g>
          <g>
            <path class="cls-1" d="M40.13,11.57s0,.08-.02.12c-.81,1.89-3.16,2.83-5.11,2.72-6.31-.37-6.55-10.45-.17-11.09,1.95-.2,4,.61,5.05,2.31.05.08.28.44.24.5l-1.84,1.04c-.37-.89-1.14-1.56-2.11-1.7-1.68-.24-3.27.55-3.7,2.25-.46,1.82.17,4,2.18,4.45,1.42.32,2.74.02,3.48-1.3.05-.08.08-.29.18-.29l1.82,1.01Z"/>
            <path class="cls-1" d="M21.07,10.73l3.09-7.28,2.07-.03,4.6,10.83h-2.37l-1.44-3.51h-5.95ZM26.09,8.59l-.9-2.1-.87,2.1h1.77Z"/>
          </g>
          <polygon class="cls-1" points="22.84 12.07 21.97 14.24 19.6 14.24 20.52 12.07 22.84 12.07"/>
          <path class="cls-1" d="M2.17,12.07v2.17H0v-2.12s.05-.05.05-.05h2.12Z"/>
          <g>
            <path class="cls-1" d="M18.83,14.24h-2.58c-.67-1.17-1.41-2.32-2.12-3.47h-4.68s-.05-.05-.05-.05v-5.16H2.17v3.07h4.28v2.09s-.05.05-.05.05H.05s-.05-.05-.05-.05V3.45h15.03c2.69.06,4.3,3.06,2.95,5.36-.38.64-.96,1.02-1.63,1.31l2.47,4.13ZM11.57,8.63h2.99c.65,0,1.54-.57,1.68-1.23.28-1.27-.66-1.82-1.78-1.88-.95-.05-1.94.04-2.89,0v3.11Z"/>
            <path class="cls-1" d="M11.57,12.07v2.17h-2.17v-2.12s.05-.05.05-.05h2.12Z"/>
          </g>
        </g>
        <g>
          <path class="cls-1" d="M51.47,14.24v-2.17c4.72.02,9.44-.02,14.16,0,.75,0,1.09.06,1.7-.47,1.4-1.19,1.59-3.55.48-4.99-1.16-1.53-2.94-.99-4.61-1.09v5.2s-.05.05-.05.05h-2.12V3.45h5.03c6.13.6,6.17,10.12.07,10.79h-14.66Z"/>
          <polygon class="cls-1" points="59.7 3.45 59.7 10.76 53.14 10.76 53.14 8.63 57.52 8.63 57.52 5.55 51.47 5.55 51.47 3.45 59.7 3.45"/>
          <polygon class="cls-1" points="50.47 3.45 50.47 5.55 47.05 5.55 47.05 10.76 44.93 10.76 44.88 10.71 44.88 5.55 41.5 5.55 41.5 3.45 50.47 3.45"/>
          <path class="cls-1" d="M47.05,14.24h-2.17v-2.12s.05-.05.05-.05h2.07s.05.05.05.05v2.12Z"/>
        </g>
      </g>
      <polygon class="cls-1" points="31.91 22.32 34.91 22.32 34.91 22.79 31.29 22.79 31.24 22.74 31.24 18.56 31.29 18.51 31.85 18.51 31.91 18.56 31.91 22.32"/>
      <path class="cls-1" d="M29.18,18.51h.57s.05.05.05.05v4.18s-.05.05-.05.05h-.57s-.05-.05-.05-.05v-4.18s.04-.03.05-.05Z"/>
      <path class="cls-1" d="M70.46.01c1.42-.19,2.14,1.55,1.03,2.4-1.06.8-2.52-.31-2.04-1.57.15-.39.59-.77,1.01-.83ZM69.88,2.17c1,.98,2.61-.4,1.73-1.54-1.01-1.29-2.88.41-1.73,1.54Z"/>
      <path class="cls-1" d="M70.82.64c.42.07.44.71.02.82l.33.58c-.06-.01-.19.02-.23,0-.03-.02-.24-.48-.29-.53-.07-.06-.17-.03-.25-.03v.57h-.17V.64c.18.02.42-.03.59,0ZM70.4,1.31c.26,0,.55.07.54-.28-.01-.29-.33-.21-.54-.22v.5Z"/>
    </g>
  </g>
</svg>