<?xml version="1.0" encoding="UTF-8"?>
<svg id="Capa_2" data-name="Capa 2" xmlns="http://www.w3.org/2000/svg" viewBox="0 0 657.1 394.38">
  <defs>
    <style>
      .cls-1 {
        fill: #132d15;
      }
    </style>
  </defs>
  <g id="Capa_1-2" data-name="Capa 1">
    <path class="cls-1" d="M266.06,100.8c.27.85-.03,1.74,1.04,1.97.29.06.76.04.7-.29-.14-.76-.51-1.45-1.74-1.68M209.85,202.6c-1.04.58-1.75.73-2.08,1.65-.26.71-.95,1.6-2.08,1.45-.77-.11-1.02.55-1.44.94-2.2,2.06-4.92,2.39-7.75,2.43-.73.01-1.94-.37-2.08.43-.14.75.71,1.6,1.54,2.06.25.14.53.22.79.33-.08.16-.16.33-.24.5-.92-.59-1.99-1.04-2.73-1.81-1.4-1.45-3.23-1.95-4.91-2.83-1.92-1.01-4.63-.54-5.86-2.91-.2-.38-.7-.48-1.15-.37-.93.22-1.38-.32-1.6-1.08-.32-1.06-1.37-1.46-2-2.26-2.28-2.92-3.67-6.25-5.09-9.59-2.15-5.05-3.8-10.24-4.03-15.75-.24-5.7-.22-11.4,1.6-16.92.12-.37.08-.87.67-1.07.62,1.65-.33,3.3.11,4.95.78-1.56,1.1-3.25,1.25-4.94.13-1.5.69-2.81,1.38-4.1.25-.48.79-.78,1.21-.59.68.32.08.8-.07,1.2-1.01,2.67-.62,5.47-.73,8.22-.02.5.07,1.25.84,1.14.72-.11.49-.67.46-1.26-.1-1.75.07-3.49,1.08-5.04.6-.91.97-1.94,1.19-3,.15-.73.21-1.49,1.3-1.31.45.07.75-.38.57-.7-1.03-1.76.36-1.63,1.5-1.84-.43-.64-1.07-1.22-.27-2.01,1.88-1.87,3.7-3.8,5.69-5.59-.62,2.06-1.91,3.71-3.36,5.24-.28.3-.74.37-.9.84-2.97,8.19-3.41,16.54-1,24.89,1.81,6.28,5.16,11.89,8.91,17.21,1.52,2.16,3.76,1.97,5.11-.25,2.8-4.6,4.35-9.7,5.99-14.78,1.12-3.48,1.87-7.06,3.22-10.49.72-1.82,1.04-4,1.37-6.05.24-1.48.07-3.43,1.44-4.7.33-.31.1-.53-.14-.73-.59-.49-.84-.84.24-.93.72-.06.51-.68.56-1.13.29-2.45.36-4.92.73-7.38.43-2.82-.39-5.63-1.04-8.38-.19-.81-.91-1.01-1.73-1.01-4.28-.01-8.53.03-12.4,2.34-1.62.97-3.02,2.18-4.47,3.36-.64.52-1.33,1.52-2.12.73-.82-.82.31-1.49.78-2.09,1.3-1.7,3.47-2.15,5.08-3.39,1.6-1.23,3.27-2.31,5.04-3.33-3.29.04-6.2,1.37-9.06,2.63-2.84,1.25-4.8,3.83-7.23,5.72,3.14-6.47,8.88-9.24,15.36-11.01-.22-.02-.44-.04-.68-.06-.14-.31.19-.26.26-.26,3.84.33,7.59-.79,11.42-.63.06,0,.14-.03.18,0,2.2,1.72,3.57.17,5.1-1.19,1.44-1.28,3.43-1.46,5.15-2.17.38-.16,1.07-.45,1.16.29.06.51-.33,1.23-.94,1.1-1.07-.23-1.59.2-1.59,1.12,0,.89-.64,1.92.83,2.62,1.17.56.77,2.13.95,3.28.05.34-.19.72.06,1.05.22.28.44.66.84.61.44-.06.57-.52.49-.86-.26-1.09-.01-2.18,0-3.26,0-.4.09-.93.66-.91.43.02.56.49.56.83.01,2.51,1.72,4.51,2.05,6.93.06.45.08,1.14.68,1.15.63.02.48-.72.69-1.12.21-.41.1-.97.84-1.39.44,2.06.97,4.01,1.27,5.99,1.18,7.6,2.28,15.2,5.21,22.41,1.28,3.14,1.74,6.53,2.47,9.84.74,3.35,2.11,6.55,3.78,9.58,1.6,2.9,3.2,5.77,5.54,8.21,3.58,3.75,7.74,4.29,12.5,2.86,5.88-1.76,9.42-6.23,12.66-10.94,5.24-7.61,7.67-16.15,7.45-25.38-.11-4.74-1.18-9.34-2.21-13.97-1.4-6.23-3.72-12.09-6.92-17.46-4.92-8.26-10.04-16.42-15.82-24.16-3.43-4.6-6.55-9.45-9.93-14.11-2.63-3.63-5-7.4-7.02-11.36.3-.33.58-.21.7-.05,1.71,2.21,4.13,3.69,5.98,5.8,1.28,1.46,3,2.75,4.79,3.49,2.43,1.01,2.44.95,4.39,3.19.69.79,1.52,1.46,2.48.94,1.05-.57-.35-1.31-.13-2.23,1.33,1.16,2.88,1.86,3.83,3.33.19.29.48.64.78.71.74.16,1.56-.15.99,1.3-.28.72,1.33,1.12,1.98,1.84.87.96,1.88,1.81,2.59,2.94.28.45.66.95,1.33.67.38-.16.87-.33.82-.85-.08-.7-.82-.59-1.26-.88.3-.52.88-.77,1.21-.4,1.14,1.29,2.95,1.64,3.99,3,.43.56,1.06,1.15,1.62,1.06,2.93-.48,4.2,1.93,5.76,3.46,2.2,2.14,4.16,4.51,6.65,6.36.6.44,1.74.74.86,1.91-.16.22.06.47.29.57,3,1.31,3.58,4.52,5.26,6.84,4.23,5.83,5.21,13,7.33,19.68.51,1.62.75,3.38.27,5.18-.26.99-.27,2.1.18,3.19.46,1.1.49,2.34.51,3.57.08,3.96,1.08,7.83.74,11.87-.44,5.25-.5,10.55-1.51,15.71-.98,4.97-2.92,9.55-5.7,13.95-2.45,3.88-5.72,6.84-8.76,10.02-4.84,5.05-10.38,9.29-17.13,11.64-5.58,1.94-11.35,2.63-17.23,2.55-.82-.01-1.16-.56-1.65-.96-1.04-.84-1.97-1.56-3.26-.24-.69.7-1.77.64-2.76.32-1.9-.6-3.8-1.16-5.85-1.1-1.22.04-2.35-.52-3.44-1.08-4.65-2.42-8.84-5.46-12.38-9.32-2.14-2.33-4.26-4.7-5.71-7.61-.63-1.26-1.83-2.21-2.32-3.64-.21-.62-.85-.87-1.45-.22-.2.22-.5.41-.61.67-1.08,2.76-2.81,5.05-4.88,7.14-.17.17-.26.61-.16.83.21.47.61.21.93.06.65-.32,1.37-.57,1.92-1.02.79-.66,1.6-.65,2.92-.43"/>
    <path class="cls-1" d="M307.92,20.4c-1.09-1.27-1.98-2.44-2.89-3.32-.51-.5-1.01-.25-1.26.53-.05.15.12.65.19.98,1.18-.71,2.57,2.99,3.96,1.81M311.02,118.44c-1.82-1.85-3-2.75-2.74-6.35.14-1.96-.98-4.96-1.36-7.48-.98-6.46-1.05-12.75-2.61-19.38-.58-2.49-.36-5.21-.57-7.84-.18-2.25.14-4.64-1.39-6.67-.09-.12-.21-.65-.18-.71,1-2.01-.58-4.3-.98-6.36-.58-2.9-.53-5.54-.9-8.33-1-7.53-1.22-14.76-1.03-21.72.05-1.72-.49-3.27-.64-4.89-.71-7.7,1.13-12.46,2.37-18.16.73-3.35,2.72-3.91,3.05-7.68.27-3.09,2-3.31,3.4-2.41,2.34,1.52,4.68,2.63,7.04,4.42,3.06,2.33,5.47,6.75,8.13,10.66,2.25,3.32,4,7.47,6.04,11.08,1.09,1.92,2,4.51,2.19,7.53.23,3.56,1.39,6.09,3.42,6.99.81.36,1.79.24,2.72,2.54-1.55.47-3.05-1.47-4.54-2.18-.07,1.16.78,2.57.04,3.5-1.23,1.54-.66,3.64,1.02,5.35-1.45,1.33-1.45,4.61.1,9.15.74,2.19,1.19,3.73-.23,3.87-.9.09-.53,1.66-.49,2.79.4,11.23,1.05,22.59,1.2,33.67.24,17.2.82,34.62.28,51.34-.1,3.15.29,6.68.47,10.03.07,1.32.5,2.15,1.08,1.89,1.59-.72,1.42,1.28,1.43,3.05.02,2.54.29,5.21-.02,7.58-.48,3.75,1.4,7.26,2.26,10.87.13.52.56.93.48,1.66-.2,1.9.07,2.74,1.06,1.92.38-.31.75.01.99.93.3,1.13-.08,1.19-.47,1.24-.36.05-.73.62-1.01.32-1.52-1.58-2.36.15-3.51.22-2.33.14-1.96,3.17-1.56,6.57.1.88.37,1.79.51,2.68.23,1.45,1.47,2.93.88,4.21-.62,1.35-1.52-1.48-2.06-1.44-1.43.11-2.9.46-4.03,1.59-.53.53-.97.83-1.58.52-2.11-1.08-3.86-4.64-5.86-6.58-.58-.56-.78-2.3-.88-3.62-.17-2.37-.28-4.76-.63-7.16-.28-1.91-.11-2.18.82-2.14.97.04,1.28.23,1.69,2.4.71,3.73.77,7.54,2.39,12.07-.24-3.17-.01-5.07,1.01-6.09.44-.44.26-2.49-.49-2.46-.88.03-1.24.18-1.36-1.94-.08-1.41-.93-3.82.8-2.61.43.3.51-1.02.42-1.91-.15-1.53-.33-3.35-1.21-4.22-2.03-2-1.89-3.12-.41-4.04.14-.09.28-.44.27-.75-.09-4.41-.48-8.91-.94-13.89-1.18.8-.25,4.54-1.44,3.64-1.27-.97-.97-3.46-.99-5.14-.03-2.17-1.18-3.43-1.53-5.39-.85-4.77-1.96-9.48-2.21-14.28-.09-1.81-1.13-3.68-2.26-3.74-.91-.05-1.34-1.43-1.81-2.69-.16-.44-.58-1.32-.02-1.33.3,0,1,.85.39-.7-.33-.83-.56-2.24-1.21-2.34-.44-.07-.53.81-.43,1.54.16,1.26.4,2.57.71,3.81.34,1.33.53,2.63.42,3.74-.12,1.2-.56,1.18-1.11-.16-1.39-3.4-1.35-10.65-.05-12.64.32-.5.4-2.17.16-3.12-.35-1.36-.88-.58-1.29-.34-.51.3-.85,2.19-1.64-.08-.61-1.75-1.23-3.9.47-4.43"/>
    <path class="cls-1" d="M115.31,156.89c-.15-.57-.47-.76-.89-.57-.58.27-.59.88-.43,1.5.1.39.2,1.07.7.78.52-.3.65-1.01.62-1.72M43.21,207.75c-.08-.51-.3-.91-.64-.72-.75.42-.56,1.38-.58,2.18,0,.36.19.93.54.79.91-.38.42-1.55.68-2.24M84.5,264.89c-.51.36-1.6.04-1.62,1.21-.02.71.61.95,1.14.72.66-.29,1.53-.44,1.45-1.59-.05-.61-.51-.55-.96-.34M90.15,173.43c.46-1.01.33-2.08.22-3.05-.08-.73.89-1.83-.11-2.02-.72-.13-.99,1.39-.8,2.3.18.87-.3,1.95.69,2.76M88.83,194.36c-.4,1.45-.67,2.46-.94,3.46-.13.46-.12.93.3,1.18.26.15.64.19.9.1.43-.16.4-.64.32-1.12-.18-1.02-.33-2.05-.57-3.61M132.89,235.27c-.11-2.41.52-4.09.72-6.47-2.01,4.06-2.02,4.08-.72,6.47M90.69,234.32c-1.22-.69-.97.42-.88.75.31,1.16,1.31.78,1.95.99.67.21.52-.76.46-1.34-.26-2.39-1.1-.78-1.53-.4M80.79,248.91c.16.74.28,1.49.49,2.21.12.41.34.94.8.88.51-.07.43-.61.38-1.06-.17-1.5-.35-3-.56-4.5-.08-.55-.28-1.06-.86-1.05-.45,0-.61.39-.7.86-.17.95.31,1.77.45,2.65M36.96,306.34c-.59.33-1.95-.04-1.57,1.16.35,1.11.96,2.59,2.25,2.92.55.14,2.15-2.47,1.94-3.12-.55-1.77-1.67-.92-2.62-.96M88.87,221.55c.11-2.01.25-3.94-.17-5.95-.52-2.51-1.26-5.11-.54-7.57.57-1.95.85-3.84.3-5.91-.16-.6.1-1.64-.7-1.65-.79,0-1.05.94-1.09,1.79-.18,4.21,1.12,8.5.34,12.68,1.44,1.94,1.34,4.32,1.86,6.6M88.15,191.6c.23.61.41,1.48,1.08,1.43.53-.05.58-.85.59-1.45.03-4.11.06-8.23.08-12.34,0-1.05,0-2.11-.1-3.16-.06-.55-.2-1.34-.88-1.3-.52.04-.5.63-.55,1.19-.48,4.93.17,10-.29,14.93-.02.21.05.45.08.69M77.97,249.74c.17,1.47,1.19,1.96,2.08,2.61.46-.56.26-1.2.17-1.75-.19-1.08.33-2.73-1-3.04-1.17-.27-.69,1.61-1.27,2.26-.77-2.34-.77-4.7-.91-7.12-.1-1.73.45-3.89-1.28-5.34-.15-.13-.16-.57-.17-.87-.11-3.06-1.11-6.13-.51-9.2.09-.46.27-1.41-.49-1.49-.84-.08-.94.79-.87,1.59.42,4.91,1.44,9.79,1.26,14.72-.05,1.39.58,2.88.55,4.28-.09,4,1.84,7.42,2.78,11.11.23.91,1.05,1.97,2.36,2.05-.48-2.1-.43-4.34-1.61-5.92-.97-1.29-1.21-2.45-1.08-3.91M84.62,268.23c-.51.3-1.15.67-1.57-.04-.91-1.53-2.04-2.32-3.74-1.88.25-1.26,1.06-.39,1.46-1.6-1.03-.67-2.15-1.55-3.37-2.15-1.16-.57-1.72-1.51-1.72-2.82,0-1.56-1.16-2.59-1.36-4.05-.54-3.97-1.13-7.93-1.74-11.88-.72-4.66-1.96-9.34-1.82-14.01.16-5.3-.95-10.55-.94-15.84,0-2.92.23-5.86-.13-8.82-.08-.68-.13-1.34-.33-2.01-.4-1.36-1.18-2.93-2.12-3.03-.81-.09-.66,1.86-.65,2.88.01,3.19-.97,6.1-1.31,9.19-.24,2.19-.97,4.56-1.17,6.85-.26,3.08-1.65,5.88-1.18,9.08.33,2.29-1.03,3.8-1.23,5.91-.83,8.82-1.56,17.63-1.74,26.57-.15,7.5-.35,15.01-1.03,22.41-.38,4.09-.07,8.35-1.07,12.29-1.1,4.31-2.25,8.6-4.23,12.42-.85,1.63-1.63,3.26-1.97,5.18-.24,1.36-1.09,2.04-2.1,1.34-2.36-1.63-5.33-1.18-7.39-3.99-.82-1.12-2.04,0-2.91.62-1.03.73-1.94,1.4-3.33.75-1.59-.74-2.88-2.72-2.64-4.64.75-6.23.02-12.52-.84-18.78-.31-2.28-.68-4.56-.54-6.78.31-5.03-.21-10.07-.38-15.12-.3-8.55.55-16.93,1.33-25.33.72-7.73,1.29-15.55,2.56-23.08,1.6-9.53,1.9-19.28,3.06-28.86.71-5.82,1.44-11.64,1.78-17.53.19-3.29.5-6.56.56-9.87.01-.75.46-1.83-.51-2.18-.75-.27-1.25.59-1.61,1.24-1.26,2.25-2.5,4.53-3.69,6.83-2.57,4.98-5.1,9.99-7.07,15.41-2.13,5.88-3.84,11.98-5.78,17.95-2.57,7.9-4.82,15.94-8.34,23.33-2.11,4.44-4,9.08-5.53,13.92-1.01,3.2-5.68,3.98-7.82,1.36-.34-.42-.72-1.03-.18-1.32,2.15-1.13,2.02-3.97,2.94-5.97,2.36-5.14,3.95-10.77,5.62-16.31,4.08-13.51,9.19-26.38,14.87-38.92,4.15-9.17,8.24-18.39,13.02-27.1,1.5-2.73,3.38-5.14,4.7-8.04.19-.43.57-.96.93-1,2.27-.23,3.58-2.16,5.2-3.58,1.73-1.51,2.41-1.14,2.99,1.4.42,1.84.51,3.68.41,5.52-.2,3.45,1.34,6.69,1.49,10.15.07,1.55.26,3.14.27,4.72,0,.92.09,1.97,1.03,2.26.95.29.84-.94,1.05-1.48,1.21-3.15,2.53-6.21,4.1-9.11.3-.56.56-1.19.47-1.89-.5-4.06,1.36-6.86,3.53-9.12,1.14-1.19,2.44-2.64,4.5-2.57,1.71.06,3.01-1.64,4.34-2.77,2.31-1.96,4.77-2.61,7.63-1.5.51.2.85,0,1.24-.27,1.42-1.01,2.18-.08,2.5,1.53.45,2.28.78,4.59,1.13,6.89.09.6.03,1.36.64,1.53.78.22.83-.65,1.01-1.26.27-.88.55-1.76,1.04-2.6-1,8.44-.43,16.96.18,26.1,1.01-1.91.58-3.55.36-4.95-.41-2.56.33-4.69.96-6.88.17-.57.36-1.69,1.19-1.37.89.35.99,1.38.84,2.32-.12.73-.34,1.42-.49,2.14-.55,2.81.95,5.69.35,8.52-.09.43.38,1.07.85,1.15.8.13.9-.69.93-1.34.18-3.84.78-7.57,1.68-11.19,1.59-6.43,2.45-13.15,4.65-19.34,1.1-3.1,1.75-6.46,2.62-9.69.91-3.39,2.72-6.18,4.06-9.28,1.71-3.94,4.84-6.63,6.63-10.6.58-1.3,2.12-2.07,3.74-2.08,2.28,0,2.5-.44,2.18-3.1-.08-.67-.15-1.34-.22-2.02,2.65.97,7.66-1.46,9.11-4.55.87,2.41,1.93.81,2.95.57.15-.03.38-.3.36-.35-.46-1.08-.67-2.36.3-2.77,1.46-.62,2.69-2.04,4.31-1.94,4.31.25,8.75-.03,12.33,4.32.72.88,1.87,1.02,2.88,1.32,1.55.46,2.17,1.55,1.76,3.37-.27,1.21-.55,2.46.02,3.76.31.7.61,1.28,1.38,1.5,2.17.62,3.05,1.78,2.64,4.17-.64,3.78-.16,7.27.96,11.06.75,2.53,1.01,5.7-.51,8.23-.95,1.59-.39,3.65-.63,5.48-.06.44,0,1.24.57,1.3.68.07.44-.69.45-1.18,0-.44-.07-.92.51-1.22.98,1.86.1,3.57.14,5.33-.9.22-.52-1.23-1.45-1.13-.38,1.8-1.16,3.69-1.11,5.62.08,2.86-1.26,5.43-.52,8.39.13.52-.12,1.18-.27,1.74-.24.93-1.06,1.85.85,1.81,1.03-.02,1.35,1.54,1.16,2.76-.16,1.04-.51,1.87-1.67,1.34-1.2-.55-1.72,0-1.99,1.39-1,5.13-2.47,10.15-3.01,15.38-.33,3.24-1,6.41-1.12,9.75-.07,1.99-1.53,3.9-1.89,6.06-1.14,6.84-4.6,12.6-5.29,19.66-.62,6.35-2.52,12.45-1.3,19.15.2,1.12,0,2.23-.44,3.26-.84,1.97-.87,4.11-.4,6.35.41,1.97,0,4.03,1.11,6.34-1.19-1.14-1.69-1.27-1.67.25.03,3.47-.1,6.92.04,10.39.06,1.55-.25,2.01-1.53,1.85-.89-.12-1.13.33-1.13,1.61,0,3.13,1.2,6.07,1.29,9.12.03.95.8,1.37.86,2.19-.87.53-1.13-1-1.91-.84-.55.99.08,1.95.43,2.75.66,1.48,1.02,3,1.28,4.58.27,1.64.49,3.24,1.44,4.72,1.26,1.98,1.06,4.32.34,6.21-.58,1.51.19,2.23.76,3.1.32.48.87.88.83,1.48-.03.49,1.01.82.15,1.36-1.4.88-1.36.9-2.06.16-.84-.89-1.71-1.75-2.58-2.59-.3-.29-1-.18-.93-.09,1.29,1.53-1.22,3.57,1.24,4.97-1.8-.13-1.92-2.32-3.54-2.68,1.02,1.79,1.51,3.6,3.12,4.35.57.26.87.68.9,1.37.09,2.15,1.23,3.47,2.72,4.52.48.34,1.3.42.65,1.59-.3.54.35,1.66.99,2.09,3.46,2.33,6.18,5.89,9.71,8.44-.57.37-1.07,0-1.44-.2-3.9-2.2-7.96-4.04-11.39-7.35-1.35-1.3-3.19-2.54-3.73-4.21-.55-1.71-1.32-3.26-1.94-4.91-.37-.97-.72-2.01-1.81-2.28-.46-.11-.65-.75-.82-1.25-.92-2.76-1.79-5.55-3.43-7.94-.5-.74-.27-1.74-.41-2.61-.39-2.33-1.41-4.17-2.77-5.99.57,1.43-.47,2.22-.6,3.34-.07.62-.19,1.26-.89,1.1-.58-.13-.54-.76-.63-1.29-.44-2.39-.88-4.77-1.35-7.15-.34-1.74-1.29-3.14-2.02-4.67-1.39-2.94-3.57-5.78-2.53-9.62.84-3.12-.62-6.44-.55-9.65.08-4.03-.58-7.98-1.36-11.93-.2-1.04-.18-2.11-.26-3.17-.2-2.75-.14-5.42-.87-8.27-.83-3.22-.83-6.86,1.53-9.41.46-.5.44-1.15.5-1.83.27-3.2.11-6.45.52-9.64.16-1.24-.3-2.53-.67-3.84-.37-1.29-1.71-3.68.37-5.03.17-.11-.12-2.36-.07-3.56.18-4.12-.31-8.41,1.26-12.2.16-.38.41-.84.72-.94,1.18-.39,1.51-1.56,1.61-2.72.63-7.66,2.53-15.03,2.27-22.9-.1-3.1.33-6.14,1.01-9.1.11-.49.18-1.01.21-1.53.04-.88.25-2.04-.87-2.18-1.1-.14-.62,1.12-.75,1.81-.05.29,0,.7-.14.86-1.98,2.19-2,5.52-2.72,8.32-.68,2.65-.77,5.67-1.22,8.49-.22,1.43-.39,2.81-1.72,3.56-.74.42-.53,1.58-.11,2.45.26.54.71,1.02.49,1.66-.71,1.98-1.8,3.71-1.93,6.05-.06.96-1.24.75-1.98.69-.52-.04-1.12-.34-1.24.48-.44,3-2.02,5.58-1.31,9.06.46,2.27-.41,4.62-1.09,6.73-.9,2.82-1.15,5.76-1.28,8.77-.04.81-.01,1.64-.57,2.37-.79-2.66.36-4.98.15-7.45-.06-.69.47-1.75-.34-1.97-.81-.22-.89.96-1.16,1.69-2.39,6.32-3.02,13.45-5.47,19.75-.84,2.16-2.48,3.86-2.38,6.57,0,.26-.21.7-.37.72-2.61.33-1.92,3.05-2.41,4.92-.58,2.21-.31,4.36.25,6.66.77,3.17,1.68,6.51,1.53,9.63-.14,2.96.44,6.14-.66,8.97-.33.84-.48,1.89-.41,2.85.21,3.23-1.48,5.19-3,7.25-.47.64-.66,1.09-.37,1.95.68,2-.15,3.49-1.35,4.43-1.06.83-2.44,1.23-3.72-.17-.23-.09-.46-.18-.69-.27"/>
    <path class="cls-1" d="M133.49,293.46c-.21-.76-.62-1.09-1.3-1.14-1.78-.14-2.6-1.26-2.29-3.14.22-1.28.82-2.49-.3-3.76-.39-.45,0-.84.28-1.11.58-.55.98.09,1.28.53,1.9,2.81,4.54,4.23,7.13,5.76.57.34,1.1.91,1.83.67.25-1.03-.81-1.06-1.09-1.97,2,.96,3.84,2.06,5.82,2.45,3.63.71,7.32,1.01,10.89,2.11,4.53,1.4,9.07,1.82,13.57,1.82,9.8-.01,18.04-4.27,24.74-12.12,2.5-2.93,4.53-6.31,6.18-10.03.51-1.14,1.21-2.15,2.07-3.04-2.06,5.84-5.26,10.93-7.32,17.01,1.5-.01,1.26-2.07,2.63-2.35-.33,1.39-.49,2.69-.93,3.81-2.09,5.24-3.25,11.07-6.63,15.48-2.36,3.09-4.84,6-7.61,8.58-.27.25-.71.45-1.04.38-1.31-.3-1.33.76-1.34,1.74-.02,1.45.91.88,1.59,1.08-3.79,2.17-7.58,4.19-12.06,3.82-.51-.04-1.1-.32-1.52-.13-2.63,1.18-5.4.05-8.1.04-2.13,0-3.89-1.71-5.84-2.56-2.41-1.05-4.73-2.07-7.28-1.9-1.06.07-1.86.08-2.72-1.64-.76-1.54-2.07-3.9-4.34-3.52-.22.04-.5-.14-.73-.26-.09-.05-.14-.24-.27-.46.55-.62,1.17-.05,1.74-.02.63.02,1.62.82,1.77-.34.12-1.01.8-2.11-.56-3.29-1.72-1.5-2.7-4.03-4.7-5.31-1.32-.84-2.6-1.79-3.86-2.76-.58-.44-1.28-.77-1.6-1.64.66-.37,1.16.81,1.93.24-1.35-1.15-1.73-2.28-.03-3.14,1.04,2.72,3.29,4.58,5.88,4.48-1.94-1.14-3.47-2.24-4.37-4.26-.16-.35-1.04-1.65-1.5-.09"/>
    <path class="cls-1" d="M624.2,166.13c.27.85-.03,1.74,1.04,1.97.29.06.76.04.7-.29-.14-.76-.51-1.45-1.74-1.68M567.98,267.93c-1.04.58-1.75.73-2.08,1.65-.26.71-.95,1.6-2.08,1.45-.77-.11-1.02.55-1.44.94-2.2,2.06-4.92,2.39-7.75,2.43-.73.01-1.94-.37-2.08.43-.14.75.71,1.6,1.54,2.06.25.14.53.22.79.33-.08.16-.16.33-.23.5-.92-.59-1.99-1.04-2.73-1.81-1.4-1.45-3.23-1.95-4.91-2.83-1.92-1.01-4.63-.54-5.86-2.91-.2-.38-.7-.48-1.15-.37-.93.22-1.38-.32-1.6-1.08-.32-1.06-1.37-1.46-2-2.26-2.28-2.92-3.67-6.25-5.09-9.59-2.15-5.05-3.8-10.24-4.03-15.75-.24-5.7-.23-11.4,1.6-16.92.12-.37.08-.87.67-1.07.62,1.65-.33,3.3.11,4.95.78-1.56,1.1-3.25,1.25-4.94.13-1.5.69-2.81,1.38-4.1.25-.48.79-.78,1.21-.59.68.32.08.8-.07,1.2-1.01,2.67-.62,5.47-.73,8.22-.02.5.07,1.25.84,1.14.72-.11.49-.67.46-1.26-.1-1.75.07-3.49,1.08-5.04.6-.91.97-1.94,1.19-3,.15-.73.21-1.49,1.3-1.31.45.07.75-.38.57-.7-1.03-1.76.36-1.63,1.5-1.84-.43-.64-1.07-1.22-.27-2.01,1.88-1.87,3.7-3.8,5.69-5.59-.62,2.06-1.91,3.71-3.36,5.24-.28.3-.74.37-.9.84-2.97,8.19-3.41,16.54-1.01,24.89,1.81,6.28,5.16,11.89,8.91,17.21,1.52,2.16,3.76,1.97,5.11-.25,2.8-4.6,4.35-9.7,5.99-14.78,1.12-3.48,1.87-7.06,3.22-10.49.72-1.82,1.04-4,1.37-6.05.24-1.48.07-3.43,1.44-4.7.33-.31.1-.53-.14-.73-.59-.49-.84-.84.24-.93.72-.06.51-.68.56-1.13.29-2.45.36-4.92.73-7.38.43-2.82-.39-5.63-1.04-8.38-.19-.81-.91-1.01-1.73-1.01-4.28-.01-8.53.03-12.4,2.34-1.62.97-3.02,2.18-4.47,3.36-.64.52-1.33,1.52-2.12.73-.82-.82.31-1.49.78-2.09,1.3-1.7,3.47-2.15,5.08-3.39,1.6-1.23,3.27-2.31,5.04-3.33-3.29.04-6.2,1.37-9.06,2.63-2.84,1.25-4.8,3.83-7.23,5.72,3.14-6.47,8.88-9.24,15.36-11.01-.22-.02-.44-.04-.68-.06-.14-.31.19-.26.26-.26,3.84.33,7.59-.79,11.42-.63.06,0,.14-.03.18,0,2.2,1.72,3.57.17,5.1-1.19,1.44-1.28,3.43-1.46,5.15-2.17.38-.16,1.07-.45,1.16.29.06.51-.33,1.23-.94,1.1-1.07-.23-1.59.2-1.59,1.13,0,.89-.64,1.92.83,2.62,1.17.56.77,2.13.95,3.28.05.34-.19.72.06,1.05.22.28.44.66.84.61.44-.06.57-.52.49-.86-.26-1.09-.01-2.18,0-3.26,0-.4.09-.93.66-.91.43.02.56.49.56.83.01,2.51,1.72,4.51,2.05,6.93.06.45.08,1.14.68,1.15.63.02.48-.72.69-1.12.21-.41.1-.97.84-1.39.44,2.06.97,4.01,1.27,5.99,1.18,7.6,2.28,15.2,5.21,22.41,1.28,3.14,1.74,6.53,2.47,9.84.74,3.35,2.11,6.55,3.78,9.58,1.6,2.91,3.2,5.77,5.54,8.21,3.58,3.75,7.74,4.29,12.5,2.86,5.88-1.76,9.42-6.23,12.66-10.94,5.24-7.61,7.67-16.15,7.45-25.38-.11-4.74-1.18-9.34-2.21-13.97-1.4-6.23-3.72-12.09-6.92-17.46-4.92-8.26-10.04-16.42-15.82-24.16-3.43-4.6-6.55-9.45-9.93-14.11-2.63-3.63-5-7.4-7.02-11.36.3-.33.58-.21.7-.05,1.71,2.21,4.13,3.69,5.98,5.8,1.28,1.46,3,2.75,4.79,3.49,2.43,1.01,2.44.95,4.39,3.19.69.79,1.52,1.46,2.48.94,1.05-.57-.36-1.31-.13-2.23,1.33,1.15,2.88,1.86,3.83,3.33.19.29.48.64.78.71.74.16,1.56-.15.99,1.3-.28.72,1.33,1.12,1.98,1.84.87.96,1.88,1.81,2.59,2.94.28.45.66.95,1.33.67.38-.16.87-.33.82-.85-.08-.7-.82-.59-1.26-.88.3-.52.88-.77,1.2-.4,1.14,1.29,2.95,1.64,4,3,.43.56,1.06,1.15,1.62,1.06,2.93-.48,4.2,1.93,5.76,3.46,2.2,2.14,4.16,4.51,6.65,6.36.6.44,1.74.74.86,1.91-.16.22.06.47.29.57,3,1.31,3.58,4.52,5.26,6.84,4.23,5.83,5.21,13,7.33,19.68.51,1.62.75,3.38.27,5.18-.26.99-.27,2.1.18,3.19.46,1.1.49,2.34.51,3.57.08,3.96,1.08,7.83.74,11.87-.44,5.25-.5,10.55-1.51,15.71-.98,4.97-2.92,9.55-5.7,13.95-2.45,3.88-5.72,6.84-8.76,10.02-4.84,5.05-10.38,9.29-17.13,11.64-5.58,1.94-11.35,2.63-17.23,2.55-.82-.01-1.16-.56-1.65-.96-1.04-.84-1.97-1.56-3.26-.24-.69.7-1.77.64-2.76.32-1.9-.6-3.8-1.16-5.85-1.1-1.22.04-2.35-.52-3.44-1.08-4.65-2.42-8.84-5.46-12.38-9.32-2.14-2.33-4.26-4.7-5.71-7.61-.63-1.26-1.83-2.21-2.32-3.64-.21-.62-.85-.87-1.45-.22-.2.22-.5.41-.61.67-1.08,2.75-2.81,5.05-4.88,7.13-.17.17-.26.61-.16.83.21.47.61.21.93.06.65-.32,1.37-.57,1.92-1.02.79-.66,1.6-.65,2.92-.43"/>
    <path class="cls-1" d="M406.26,188.66c-1.91,1.73-2.51,3.45-.73,5.32-.84.37-.97-.47-1.57-.59-.07.82-.36,1.56-.23,2.46.09.62.26,1.69-1.02,1.75-.53.03-.61.71-.71,1.17-.14.7-.18,1.41-.28,2.12-.07.44-.18,1.07-.74.84-1.05-.43-1.12.46-1.5.97-.53.72.3.75.53,1.07.33.46.5.9.04,1.44-.11-.14-.19-.23-.26-.33-.19-.32-.13-.93-.61-.9-.51.02-.56.61-.7,1.01-.27.74-.49,1.5-.81,2.49-.44-.91-.98-1.5-1.07-2.35-.04-.33.01-.82-.4-.89-.52-.1-.4.44-.54.74-.34.71-.53,1.47-.77,2.22-.39,1.23-1.03-.08-1.55-.18-.39-.07-.33-.75-.42-1.18-.34-1.66-.31-3.42-1.32-4.91-.27-.39-.38-1.04-.15-1.54.23-.49.22-.96.11-1.43-.37-1.63.05-3.21.27-4.81.15-1.11-.2-2.2-.52-3.24-.22-.71-.23-1.39-.2-2.09.02-.4.26-.85.76-.67.41.15.36.55.14.89-.38.59-.22,1.13.37,1.27.66.15.56-.56.59-.94.11-1.21.91-2.36.94-3.37.04-1.34.57-2.48.71-3.73.03-.31.07-.62.32-.85.89-.85,1.48-1.86,1.35-3.13-.07-.7,1.42-1.07.21-1.98,1.12.93,1.77-.4,2.66-.39.39,0,.77-.11,1.2.03,4.98,1.54,6.4,6.11,6.46,9.79.02,1-.75,1.9-.58,2.97.04.23-.07.34-.31.25-.08-.03-.15-.11-.23-.12-.6-.09-.68.42-.85.8-.09.19-.16.49.1.57.43.14.43-.51,1.3-.56"/>
    <path class="cls-1" d="M395.8,252.56c.87-.87,1.05-1.54.7-2.33-.05-.1-.37-.2-.46-.14-.85.55-.32,1.29-.24,2.47M385.92,301.28c.33-.44.41-1,.31-1.54-.12-.64-.66-.72-1.16-.56-.74.24-.46.78-.2,1.19.24.37.27,1.01,1.05.91M446.83,245.5c-.2-.14-.4-.27-.59-.41-1.43,2.08-2.85,4.16-4.28,6.24,2.32-1.43,3.71-3.55,4.87-5.84M442.5,292.09c.3,1.84,2.88,2.96,4.5,1.96.32-.2.3-.46.3-.78,0-1.19-.79-1.59-1.77-1.7-.6-.06-1.13,0-1.56-.59-.34-.47-.87-1.18-1.44-.9-.73.35.16,1.08,0,1.65-.03.11-.02.24-.03.36M458.43,229.69c-1.69,1.53-3.34,3.07-5.04,4.55-2.71,2.37-3.32,6.17-5.91,8.63-.29.28-.54,1.07.03,1.28.63.23,1.03-.39,1.39-.93,2.94-4.31,5.86-8.63,9.28-12.59.2-.23.72-.38.26-.94M388.19,313.29c1.02,0,1.2-1.34,2.67-1.5-1.59,1.4-1.17,2.7-.55,4.06,1.06,2.34,3.02,2.6,4.7.59.35-.42.67-.86,1.19-1.15-.41,1.66-1.61,3.34-2.87,3.68-2.31.62-3.86,2.52-6.14,3-.66.14-2.57-.87-2.8-1.47-.38-.99-.17-2.37-2.26-1.7-1.38.44-3.28.09-4.5-1.44-3.42-4.3-6.1-8.84-6.57-14.55-.39-4.73-.7-9.47-.18-14.14.57-5.19.79-10.45,1.88-15.54.74-3.46.94-7.13,2.18-10.35,1.15-2.98,1.19-6.05,2.05-9.01,1.38-4.76,2.39-9.63,3.63-14.77-1.3.46-2.35.78-2.89,1.64-1.23,1.93-3.52,2.75-4.72,4.57-.93,1.42-2.68,2.36-2.79,4.26-.07,1.16-.09,2.3-.31,3.46-.39,2.12-.95,4.19-1.45,6.28-.2.82-.73,1.96.84,2.28.68.14.74.76.54,1.35-.49,1.38-.52,2.93-1.57,4.09-.26.29-.57.67-.29.97,1.19,1.28.22,2.17-.41,3.22-.43.72-.69,1.61-.76,2.44-.16,1.91-1.53,3.23-2.18,4.9-.13.32-.45.41-.68.01-.13-.23.21-.91-.5-.59-.34.15-.52.48-.46.92.17,1.2-.06,2.4-.71,3.37-.59.88.5,1.29.29,2.03-2.24,7.87-2.31,16.82-1.37,23.38.16,1.1-.17,2.21.4,3.66-1.47-.88-2.28-1.67-2.1-3.08.07-.54.11-.99-.43-1.27-.54-.28-1.02-.24-1.49.24-.63.65-1.29,1.17-1.57-.32-.13-.7-.87-.8-1.38-1.12-.39-.24-.79-.43-1.15.02-.35.44-.4.95.07,1.31,1.7,1.29.67,2.88.3,4.22-.34,1.22-1.36.86-1.93.01-.72-1.06-1.24-2.25-1.95-3.32-.37-.55-.89-2.37-1.53-.09-.17.6-.69.61-.97.17-1.69-2.65-4.78-3.87-6.52-6.44-.2-.3-.52-.54-.42-1.07,1.45.49,1.86-.09,1.4-1.46-1.16-3.5-1.47-7.21-1.28-10.76.22-3.96-.07-7.87-.14-11.79-.04-2.06-.86-4.1-1.26-6.17-.03-.18-.96-1.37.54-.88.29.1.26-.46.19-.74-.5-1.87-1.94-3.08-3.15-4.44-.43-.48-1.07-.11-1.56.12-2.45,1.18-4.53.16-5.92-1.61-1.85-2.36-3.9-4.59-5.35-7.26-.47-.86-.41-2.37-2.11-1.97-.11.03-.42-.3-.41-.3,1.2-1.64-.75-1.76-1.24-2.58-.26-.44-.08-.65.35-.82.57-.22.93-.69,1.31-1.26-.5,0-.9.01-1.3.02-.04-.33.13-.38.32-.42.72-.15,1.46-.26,2.16-.47.73-.21,1.87.03,2.03-.92.14-.85-1.2-.67-1.65-1.59,2.23-.75,4.42-1.97,6.69-2.14,3.41-.26,6.19-1.85,9.13-3.18,3.47-1.57,6.92-3.2,10.46-4.58,2.42-.94,2.32-3.05,2.56-4.89.97-7.3,2.21-14.54,3.51-21.78,1.64-9.17,3.32-18.34,4.54-27.58.5-3.76,1.15-7.53,1.28-11.31.12-3.43.04-6.95-1.8-10.35,1.15.32,2.07.59,3.01.85-.8,1.01-.26,2.1,1.28,2.26,4.73.52,7.96,3.29,10.42,7.04.91,1.4,1.42,3.15,1.77,4.81.78,3.67,1,7.42,1.34,11.16.47,5.13-.03,10.22-.42,15.28-.37,4.67-.83,9.37-1.63,14-.14.78.03,1.49.48,1.86.88.71.85,1.26-.5,2.23,1.87-.2,3.12-.32,4.36-.48,2.46-.31,4.75.19,6.95,1.3,1.22.62,2.52-.1,3.88.39,2.49.9,4.49,2.53,6.74,3.79.05.03.13.07.14.12.23,2.33,2.14,2.71,3.85,3.41,1.43.59,1.25,1.99,1.31,3.19.17,3.33-.47,6.56-1.05,9.83-.44,2.45-1.33,4.65-2.31,6.91-1.33,3.08-1.99,6.45-3.33,9.53-1.01,2.33-.93,4.7-1.26,7.07-.15,1.07-.68,2.09-.89,3.16-.67,3.42-1.06,6.91-1.51,10.35-.31,2.35-.72,4.48-1.81,6.52-.23.43-.16.81.25.87,1.85.27.67,1.2.31,1.71-1.54,2.16-2.33,4.37-2.2,7.17.11,2.43-1.25,4.81-1.64,7.29-.12.77-.73,1.83-.06,2.18.86.45,2-.1,2.55-.96.77-1.2,1.86-1.84,3.05-2.46.29.94-1.41,1.3-.72,1.88.73.61,1.57-.42,2.14-.91,2.75-2.35,5.42-4.8,8.1-7.24,4.53-4.12,7.63-9.42,11.56-14.04,3.69-4.34,7.14-8.9,10.73-13.33,1.2-1.49,2.57-2.83,2.61-4.94.01-.66.61-.99,1.14-1.35,4.69-3.14,7.76-7.68,10.04-12.65.7-1.53,1.19-2.72,2.73-3.41.4-.18.82-.67.92-1.1.63-2.66,2.73-4.25,4.38-6.16.75-.88.67-2.16,1.13-2.94.75-1.28,1.83-2.49,2.87-3.64,1.69-1.88,3.51-3.39,6.07-4.35,4.57-1.71,8.72-1.06,12.81.97,4.29,2.12,8.11,5.11,10.97,8.82,3.27,4.23,5.68,9.03,4.78,14.86-.72,4.67-1.79,9.25-2.82,13.85-.31,1.41-1.57,2.04-2.03,3.22-1.77,4.47-3.72,8.84-6.27,12.93-.31.5-.27,1.04-.34,1.59-.39,2.83-.9,5.61-4.06,6.81-.4.15-.85.42-.85.89,0,.47.5.42.84.53.83.26,1.25,1.03,1.12,1.69-.12.62-.99.1-1.46.25-2.13.65-4.34,1.16-5.88,2.98-.49.59-3.81,1.58-4.51,1.29-1.4-.58-.77-1.72-.6-2.91-2.24.77-3.94,2.05-5.83,3.38-.02-1.02.29-1.57,1.06-1.88.61-.25.91-.8,1.25-1.32.18-.27.32-.58.1-.85-.24-.3-.56-.11-.84,0-1.32.53-2.53,1.25-3.65,2.13-1.19.94-2.33,1.64-4.01.81-1.01-.5-2.37.32-3.52-.55-.68-.52-1.31-1.04-1.37-1.85-.07-.82-.55-1.33-.91-1.96-.41-.72-1.46-1.56.24-2.07.27-.08.32-.57.19-.58-1.96-.05-.66-2.13-1.82-2.72.86,0,1.54.04,2.28-.49,1.48-1.05,2.28-.62,2.28,1.16,0,1.02.78,1.28,1.3,1.84,1.03,1.11,2.44.52,3.64.87,1.38.4,1.85-.81,2.63-1.88,1.49-2.06,3.31-3.93,4.59-6.15,2.85-4.92,5.32-10.02,7.67-15.2,3.1-6.84,5.91-13.79,7.87-21.04.52-1.9.51-4,.43-5.99-.08-1.98-1.03-2.58-2.82-1.89-1.92.73-3.75,1.7-5.22,3.22-2.01,2.07-3.82,4.42-6.1,6.13-3.34,2.51-5,6.26-7.64,9.21-2.27,2.53-2.11,5.82-3.85,8.45-1.58,2.38-2.41,5.22-4.53,7.31-1.6,1.58-2.04,3.87-3.28,5.72-2.68,3.97-5.88,7.64-7.82,12.07-2.8,6.4-8.23,10.78-12.28,16.22-2.17,2.91-4.67,5.52-7.58,7.73-1.94,1.47-4.11,2.45-6.35,3.34-1.34.54-2.69.45-3.92-.23-1.74-.96-3.79-1.68-3.95-4.2-.04-.64-.55-1.22-1.12-1.38-2.13-.57-2.76-2.37-3.6-4.06-.31-.63-.42-1.73-1.58-1.43-1.1.28-.98,1.09-.97,2.03,0,1.69.11,3.46-1.03,4.94-.2.27-.41.63-.12,1.05"/>
    <path class="cls-1" d="M168.87,366.04c-.61.25-.52.85-.57,1.36-.05.52.33.54.71.51.66-.06.74-.44.59-1.01-.11-.42-.13-.85-.74-.86M193.36,319.68c-1.6.62-2.32,1.47-3.29,2.87,1.54-.73,2.48-1.34,3.29-2.87M283.76,270.95c2.61-.3,2.64-.31,3.32-1.59-1.22.26-2.39.46-3.32,1.59M169.28,364.14c1.18-.43,1.41-1.19,1.39-2.1,0-.52-.09-1-.74-1.05-.69-.05-.79.49-.8.98,0,.66.09,1.31.15,2.17M285.8,288.07c-.69,1.62.02,3.26-.49,4.78-.09.27.04.65.42.68.39.03.59-.36.53-.61-.37-1.54.59-3.17-.46-4.85M174.58,350.95c-2.48,2.39-4.21,6.43-3.6,8.23,1.48-2.77,2-5.74,3.6-8.23M195.34,330.83c-3.89,4.06-8.75,7.28-11.1,12.69,3.95-4.01,8.23-7.73,11.1-12.69M174.99,358.5c-1.36.44-2.42,3.08-1.74,4.93.62-1.81,1.16-3.39,1.69-4.97.38-1.01,1.12-1.94.75-3.34-1.16,1.1-2.12,2.01-.7,3.38M294.61,267.83c5.2.19,10.05,1.4,14.46,4.36,2.49,1.67,5.23,2.96,7.86,4.43,1.41.79,2.06,2.23,2.95,3.46,1.04,1.44,1.79,3.33,3.17,4.25,3.05,2.04,1.93,4.84,1.75,7.36-.24,3.3-1.16,6.49-2.41,9.6-.6,1.5-1.53,2.8-2.13,4.28-1.94,4.76-3.98,9.49-5.79,14.31-.53,1.42-.63,3.21-1.53,4.28-1.51,1.8-.84,4.22-2.25,5.92-.07.09-.15.29-.11.33,1.38,1.57.17,3.32.34,4.98.13,1.27.53,1.6,1.73,1.27,2.62-.72,5.02-1.99,7.54-2.97.34-.13.73-.42,1.01-.33,1.42.43,2.15-.34,2.82-1.39.44-.69.81-1.58,1.95-.85.27.18,3.17-2.6,3.16-3.03-.04-1.22-.84.13-1.13-.31.9-1.06,1.4-1.32,1.81-.92.88.88.4,1.57-.23,2.37-.54.67-1.38,1.21-1.42,2.23,1.08.36,1.17-.81,1.8-1.02.63.07.28.86.72.96,2.56.59.81,1.26-.04,1.57-1.59.59-1.41,1.94-1.72,3.12.64.27.72-.75,1.32-.42.23.57-.17.9-.5,1.26-.29.31-.73.66-.31,1.09.33.34.8.52,1.35.25.45-.22.86-.38,1.15-.85.54-.87,1.45-1.49,2.38-1.6,2.34-.27,4.47-.89,6.09-2.88.37.88-.1,1.23-.36,1.58-2.7,3.53-5.44,6.95-9.21,9.55-2.56,1.76-5.08,3.66-7.48,5.69-1.67,1.41-3.28,3-5.31,4.02-.92.46-1.87.56-2.83.74-1.36.25-2.86-.11-4.04.96-.39.36-.82,0-1.2-.18-1.59-.7-3.09-1.54-4.42-2.66-6-5.06-10.19-11.25-11.94-19-.97-4.32-.34-8.47.78-12.7.69-2.62,1.53-5.17,2.33-7.75,1.17-3.81,2.29-7.62,3.84-11.31,2.15-5.12,2.96-10.6,4.27-15.95.27-1.09-.37-1.23-1.1-1.09-3.5.66-7-.07-10.5.14-.67.04-1.36.07-2.01.21-3.45.73-4.26,2.13-4.21,5.71.03,2.8.36,5.62-.19,8.45-.31,1.63.22,3.34-.12,5.07-.27,1.39.04,1.45-.99,2.26,1.08.89,1.97.66,2.94-.83-.13,2.8-.96,5.01-.94,7.33.05,4.36-.79,8.72-1.99,12.76-1.18,3.98-1.71,8.58-5.4,11.59-1.11.9-1.86,2.29-2.65,3.53-1.14,1.79-2.61,2.9-4.82,2.83-1.44-.04-2.26.65-3.05,1.9-1.89,2.99-2.85,6.35-4.24,9.53-.3.69-.56,2.19-1.45.26-.51-1.1-1.03-.17-1.35.19-1.41,1.61-2.77,3.26-4.14,4.92-.86,1.04-1.59,2.21-2.57,3.11-.85.79-2.18.47-3.26.98-4.62,2.18-9.34,3.03-14.21.61-2.18-1.08-3.85-2.72-5.09-4.69-2.39-3.79-4.64-7.67-6.32-11.85-.31-.77-.35-1.55-.56-2.31-.13-.48-.39-.99-.92-1.06-.69-.1-.69.56-.85,1-2.27,6.2-5.53,11.89-8.92,17.52-1.37,2.27-3.14,4.34-4.3,6.63-1.36,2.7-3.53,4.58-5.28,6.86-1.87,2.43-4.07,4.59-5.99,6.98-1.64,2.05-3.75,3.51-5.73,5.14-.25.21-.81.28-.57.76.2.39.68,0,1.1.14-5.77,3.85-11.84,5.13-18.36,2.52-1.49-.6-2.81-1.78-3.81-3.09-3.09-4.08-6.03-8.26-6.94-13.47-1.05-6.03-.29-11.86,1.97-17.51.28-.71.54-1.22.02-2.01-.58-.88-.03-1.76.57-2.51,2.29-2.9,4.1-6.07,5.2-9.62.12-.4.31-.84.6-1.12,1.86-1.78,2.24-4.44,3.84-6.38.26-.32.61-.72.19-1.14-.44-.43-.11-.78.17-.88,2.73-1.04,3.62-3.77,5.34-5.73.32-.36.49-.82.98-1.06.78-.37,1.35-.8.46-1.76-.4-.44.36-.79.67-.81,1.63-.1,2.26-1.56,3.71-2.35-1.88-.56-1.97-1.13-.38-1.8.31-.13.51-.51.75-.79,6.86-7.71,15.37-12.5,25.52-14.36.72-.13,1.47-.16,2.21-.18.9-.03,1.92.17,2.18,1.04.33,1.09.86,2.29-.31,3.42-1.79,1.73-4.18,2.67-5.86,4.48-4.06,4.35-8.53,8.3-12.35,12.88-3.58,4.29-2.5,3.33-6.52,7.23-1.45,1.41-2.73,3.01-4.08,4.52-2.44,2.74-4.77,5.6-6.99,8.48-1.91,2.48-3.66,5.43-4.07,8.74-.2,1.62-.8,3.14-1.09,4.95,1.14-.38.91-1.83,2.16-1.91-.18,1.6-.44,3.15-.52,4.72-.13,2.69.22,5.39.41,8.07.15,2.12,1.32,4.17,2.07,6.24.24.66.76.92,1.48.8,3.86-.64,7.14-2.4,9.92-5.13.37-.37.79-.55,1.22-.78,1.31-.7,2.42-1.6,3.42-2.75,2.27-2.62-.14,0,2.5-2.27.58-.5,1.03-1.22,1.38-1.92.23-.46.42-.92.87-1.13,2.15-1.01,2.73-3.23,3.9-4.99.35-.52.53-1.44,1.52-.48.33.32.69-.59.65-.98-.17-1.82,1.2-2.61,2.08-3.86,1.07-1.52,2.39-3.03,3.07-4.85.16-.42.28-.99.77-.83.76.25.19.84.05,1.21-1.12,2.93-2.3,5.84-3.44,8.77-.11.27-.12.58-.22,1.09,1.49-.4,1.63-1.71,2.15-2.59,1.37-2.33,2.89-4.53,4.76-6.48,1.24-1.28,2.46-2.56,3.05-4.31.2-.58.48-1.16.85-1.64,2.97-3.79,3.47-8.04,2.26-12.55-.61-2.25-.33-4.61.09-6.64.88-4.32.8-8.69,1.41-13.01.67-4.74,1.16-9.5,2.42-14.13.38-1.4.69-2.91,2.19-3.68.15-.08.36-.25.37-.39.2-2.43,1.52-1.08,2.62-.85,2.55.54,4.84,1.81,7.39,2.45,2.04.51,4.1,2.22,5.3,4.37.23.41.33.87-.04,1.19-.77.67-.99,1.88-1.64,2.36-3.69,2.72-3.62,6.83-4.25,10.69-1.49,9.01-1.08,18.03-.16,27.05.09.92-.13,2.21.95,2.59,1,.34,1.6-.77,2.22-1.39,1.34-1.35,2.61-2.79,3.89-4.2,2.08-2.28,4.86-3.84,6.83-6.11,1.2-1.38,2.58-2.46,3.83-3.73.35-.35.45-1,.53-1.54.2-1.3,1.06-2.21,2.16-2.49,1.07-.28,1.23-.8,1.51-1.7.46-1.42.94-2.87,2.13-3.99,1.06-1,1.71-2.29,2.28-3.71,2.36-5.85,3.52-12.02,5.21-18.04,1.16-4.15,1.3-8.33.83-12.59-.52-4.75,1.71-8.33,5.14-11.32.32-.28.7-.57.84-.94.98-2.59,3.17-3.81,5.56-4.44,3.23-.86,6.43-2.25,9.91-1.57q-4.04.18-5.3,1.02c2.51.37,4.14.05,5.25-1.05"/>
    <path class="cls-1" d="M518.98,122.63c.87-1.02,1.2-.05,1.39.48,1.04,2.95,2.2,5.85,3.79,8.56.55.94.09,2.07.35,3.09,1.77,7.05-.19,13.91-1.08,20.82-.32,2.5-.73,4.99-1.1,7.48-.18,1.24.19,1.9,1.6,1.69,1.62-.24,3.19-1.14,4.87.26.55.45,1.85-.3,2.76-.68,1.07-.45,1.95-1.31,3.22-1.49-.17.5-1.2.49-.75,1.17.31.47.78-.01,1.17-.1.88-.2,1.42-.75,1.96-1.51.67-.94,1.52-1.88,3.04-1.1.69.35,1.5.33,1.68-1.07.18-1.4,1.85-1.52,2.99-1.97,2.48-.96,5.1-1.51,7.53-2.62.55-.25,1.24-.57,1.77-.44,2.52.63,4.58-.94,6.49-1.84,2.51-1.19,5.36-1.18,7.71-2.69.49-.31,1.93-1.2,1.65.81-.07.51.41.55.75.23.22-.2.33-.52.53-.75,2.23-2.56,3.57-2.52,5.65.24-1.51.36-2.95-1.1-4.39-.14-.09.73,1.05.3.87.92-.17.59-.81.39-1.27.49-1.66.36-3.3,1.3-4.81,1.45-1.89.19-3.55.65-4.9,1.72-1.92,1.52-4.2,2.19-6.35,3.23,1.18.27,2.21.06,3.19-.49.38-.21.81-.35,1.23-.1.11.06.21.35.15.44-.24.43-.7.52-1.12.5-1.56-.07-2.78.57-4.07,1.78,1.28.27,2.12-.23,3-.6,1.41-.58,1.57-.49,2.42.85.31.49.78.27,1.16.12,1.53-.62,3.22-.71,4.71-1.56.9-.51,2.05-.67,3.22-.32-.38.77-1.01.88-1.55,1.12-.99.44-2.69.31-1.86,2.31.16.39-.5.65-.87.83-1.1.53-2.17,1.13-3.41,1.37-2,.39-3.13,2.03-3.73,4.02-.32,1.08-1.33,2.41-2.33,2.75-6.61,2.25-12.14,6.46-18.21,9.68-2.54,1.35-4.98,2.88-7.42,4.39-.94.58-1.93.7-2.97.87-1.42.23-3.1.22-3.11,2.41,0,.4-.56.77-.77,1.21-.28.59-.69.88-1.32.67-.33-.11-.74-.29-.9-.57-.42-.75.76-.56.78-1.12-2.22.2-2.85.77-2.74,2.74.03.58-.05,1.06-.51,1.25-2.4.97-2.29,3.29-2.42,5.14-.27,4.02-.72,8.03-1.01,12.04-.23,3.23-.47,6.49-.45,9.69.03,3.47.13,7.01-.08,10.42-.3,4.86.5,9.69-.05,14.52-.14,1.21.21,2.53-.13,3.66-.67,2.22.49,4.56-.65,6.74-.3.57-.23,1.54.04,2.16.65,1.49,1.26,2.85-.28,4.16-.1.09-.11.37-.06.53,1.07,3.33-.09,6.73.44,10.15.52,3.31-.13,6.8-.32,10.21-.03.52-.37,1.03-.56,1.55-.13.34-.17.77-.63.81-.5.04-.82-.29-.97-.71-.75-2.19-2.08-4.25-1.64-6.71.2-1.14-.41-1.49-1.3-1.51-.93-.02-2.01.04-1.98,1.36.04,1.83-.27,3.67.08,5.5.07.38.61,1.02-.23,1.21-.6.14-1.12.34-1.8-.31-1.64-1.59-1.83-3.81-2.78-5.68-2.63-5.16-2.38-10.85-2.65-16.42-.54-10.83-.62-21.66.06-32.48.39-6.2.91-12.39,1.6-18.57.42-3.76.76-7.55.96-11.33.11-2.14-.21-4.29.52-6.37.17-.49-.14-.69-.56-.71-1.42-.07-2.83-.06-4.22.34-.38.11-.72.28-.7.73.04.53.44.42.82.44.93.04,1.58.82,2.52,1,.8.16.68.91.2,1.46-.54.62-1.26.77-2.02.57-.88-.23-1.77-.26-2.5.26-3.4,2.44-7.58,2.67-11.33,4.13-2.28.89-4.78.89-7.05,1.86-1.08.46-2.09.01-3.15-.48-2.88-1.33-4-4.08-5.59-6.47-.43-.65-.86-1.48-.29-2.04,1.13-1.11.36-1.54-.41-2.27-.79-.75-1.41-1.63-.79-2.92.51-1.05-.24-1.99-.75-2.87-.19-.32-.95-.41-.6-.93.29-.44.87-.72,1.47-.57,3.19.77,6.22-.11,9.27-.85,1.14-.28,2.29-.47,3.33-1.06.36-.2.86-.38,1.23-.29,3.51.88,6.12-.86,8.65-2.9.1-.08.19-.21.29-.22,3.41-.18,6.02-3.02,9.68-2.7,1.51.13,3.07-1.02,4.75-1.25.87-.12,1.24-1.28,1.37-2.23.83-6.04,2.45-11.92,3.68-17.87,1.19-5.71,2.41-11.41,3.64-17.11,1.16-5.38,1.84-10.78,2.4-16.22.21-2.07.26-4.17.4-6.58,1.63,1.72.13,4,1.27,5.66.82-.47.09-1.56.89-2.08,1.07,1.13-.09,2.48.35,3.64-1.6.47-1.07,1.68-1.08,2.81,1.56-.64,1.08-1.81,1.03-2.84"/>
    <path class="cls-1" d="M448.31,282.43c-.23.84.27,1.95-.91,2.31-.35.11-.92-.25-.88-.5.15-.98,1.12-1.24,1.79-1.8"/>
  </g>
</svg>