<?xml version="1.0" encoding="UTF-8"?>
<svg id="Capa_2" data-name="Capa 2" xmlns="http://www.w3.org/2000/svg" viewBox="0 0 487.89 165.42">
  <defs>
    <style>
      .cls-1 {
        fill: #132d15;
      }
    </style>
  </defs>
  <g id="Capa_1-2" data-name="Capa 1">
    <g>
      <ellipse class="cls-1" cx="190.69" cy="10.28" rx="10.44" ry="10.28"/>
      <path class="cls-1" d="M321.25,10.28c0,5.68-4.67,10.28-10.44,10.28s-10.44-4.6-10.44-10.28S305.05,0,310.81,0s10.44,4.6,10.44,10.28Z"/>
      <path class="cls-1" d="M149.99,10.22v144.46c0,5.64-4.64,10.22-10.37,10.22s-10.37-4.57-10.37-10.22V37.82l-46.39,55.8c-2.01,2.41-4.93,3.64-7.87,3.61-2.94.03-5.86-1.2-7.87-3.61L20.74,37.82v116.85c0,5.64-4.64,10.22-10.37,10.22s-10.37-4.57-10.37-10.22V10.22C0,4.58,4.64,0,10.37,0,13.86,0,16.95,1.7,18.82,4.31l56.18,67.53L131.16,4.31C133.04,1.7,136.13,0,139.62,0c5.72,0,10.37,4.58,10.37,10.22Z"/>
      <path class="cls-1" d="M180.39,96.29v-30.85c0-5.64,4.64-10.22,10.37-10.22s10.36,4.57,10.36,10.22v30.85c0,27.23,22.25,49.3,49.7,49.3s49.69-22.07,49.69-49.3v-30.85c0-5.64,4.64-10.22,10.37-10.22s10.37,4.57,10.37,10.22v30.85c0,38.09-31.53,68.96-70.43,68.96s-70.43-30.87-70.43-68.96Z"/>
      <path class="cls-1" d="M467.16,82.71c0-30.85-25.22-63.06-56.35-63.06h-38.54v126.11h38.54c31.12,0,56.35-32.21,56.35-63.05ZM487.89,82.71c0,41.7-34.5,82.71-77.06,82.71h-48.92c-5.73,0-10.37-4.57-10.37-10.21V10.22c0-5.64,4.64-10.22,10.37-10.22h48.91c42.57,0,77.08,41.01,77.08,82.71Z"/>
    </g>
  </g>
</svg>