<?xml version="1.0" encoding="UTF-8"?>
<svg id="Capa_2" data-name="Capa 2" xmlns="http://www.w3.org/2000/svg" viewBox="0 0 535.82 102.29">
  <defs>
    <style>
      .cls-1 {
        fill: #132d15;
      }
    </style>
  </defs>
  <g id="Capa_1-2" data-name="Capa 1">
    <g>
      <path class="cls-1" d="M265.35,22.09c-.04-8.08-2.26-16.8-9.88-19.44-3.61-1.26-7.29-2.08-11.34-2.07l-64.15.06-14.46.27c-9.74.18-20.43.87-23.57,10.56-1.16,3.57-1.83,7.14-1.81,11.1l.26,57.19c.04,7.65,1.81,17,8.71,19.8,3.06,1.25,6.71,2.58,10.21,2.58l55.56-.12,31.05-.35c3.36-.04,6.52-.93,9.58-1.91,9.07-2.91,10.21-13.02,10.16-22.36l-.32-55.31ZM164.23,83.09l-.4-64,77.94-.39.27,63.98-77.81.41Z"/>
      <path class="cls-1" d="M21.65,102.28H.55s-.24-25.13-.24-25.13L0,.88l16.31-.05,75.33,62.2c2.88,2.43,4.97,4.82,7.77,7.49l-.91-17.49-.26-52.64c7.07.36,13.99-1.08,21.36.03l.53,101.27c-5.71.15-10.85.24-16.34-.04L29.03,39.63c-3.07-2.58-5.45-4.97-8.36-7.79.51,6.15.92,11.48.94,17.47l.04,52.97Z"/>
      <path class="cls-1" d="M475.8,102.29l-49.4-.02-.04-11.32,70.36-72.14-63.65.25-.17-18.13,9.9-.38,87.56-.05c1.66,0,2.84-.72,4.55.04.21,3.45.66,6.74-.05,10.13l-71.28,72.11,71.8-.25c-.02,2.52-.32,4.62.45,6.83l-.06,8.66c0,1.33-.02,2.87-.92,3.74l-59.04.52Z"/>
      <polygon class="cls-1" points="374.18 102.28 347.83 102.29 382.46 28.28 373.62 31.09 362.44 13.08 395.37 1.12 422.04 .85 374.18 102.28"/>
      <polygon class="cls-1" points="303.66 102.28 277.26 102.29 311.79 28.26 302.96 31.14 291.79 13.06 324.77 1.09 351.37 .83 303.66 102.28"/>
    </g>
  </g>
</svg>