<?xml version="1.0" encoding="UTF-8"?>
<svg id="Capa_2" data-name="Capa 2" xmlns="http://www.w3.org/2000/svg" viewBox="0 0 329.71 131.16">
  <defs>
    <style>
      .cls-1 {
        fill: #132d15;
      }
    </style>
  </defs>
  <g id="Capa_1-2" data-name="Capa 1">
    <g>
      <path class="cls-1" d="M140.99,23.74c-12.07,0-21.16,5.42-26.09,14.61V0h-6.36v86.84h6.36v-30.86c0-16.5,10.12-26.45,25.31-26.45,11.94,0,19.99,8.56,19.99,21.54v35.77h6.36v-36.65c0-15.74-10.26-26.45-25.57-26.45"/>
      <path class="cls-1" d="M34.14,24c-1.42,0-2.8.06-4.14.18-4.79.31-9.27,1.54-13.23,3.55-5.08,2.51-9.06,6.18-11.85,10.62C1.8,43.19,0,49.04,0,55.56c0,3.9.65,7.56,1.83,10.92,3.03,9.32,10.17,16.48,20.84,19.43.02,0,.05.01.07.02.18.05.37.1.55.14,1.57.42,3.2.74,4.86.93.17.02.34.04.5.06.19.02.38.04.58.06,1.58.17,3.21.26,4.91.26,33.95,0,50.24-27.97,50.24-31.69s-16.22-31.7-50.24-31.7M34.14,81.87c-1.44,0-2.86-.07-4.34-.23l-.21-.02c-.1,0-.2-.02-.29-.03h-.03s-.03,0-.03,0c-.11-.01-.22-.03-.33-.04h-.09c-1.39-.18-2.76-.44-4.09-.8-.1-.03-.2-.05-.3-.08-.05-.01-.1-.02-.15-.04-.05-.01-.09-.03-.13-.04-8.44-2.34-14.5-7.95-17.06-15.82l-.02-.06-.02-.06c-1.01-2.86-1.52-5.92-1.52-9.09,0-5.2,1.4-10.11,4.04-14.21l.02-.03.02-.03c2.32-3.71,5.56-6.6,9.62-8.61h.03s.03-.03.03-.03c3.36-1.71,7.09-2.71,11.09-2.97h.06s.06,0,.06,0c1.21-.11,2.44-.16,3.65-.16,28.15,0,42.35,21.15,44.53,26.17-2.19,5.02-16.44,26.18-44.53,26.18"/>
      <path class="cls-1" d="M323.58,25.15v26.02c-5.11-9-20.96-27.17-48.4-27.17-1.42,0-2.8.06-4.14.18-4.79.31-9.27,1.54-13.23,3.55-5.08,2.51-9.06,6.18-11.85,10.62-3.12,4.83-4.92,10.68-4.92,17.2,0,3.9.65,7.56,1.83,10.92,3.03,9.32,10.17,16.48,20.84,19.43.02,0,.05.01.07.02.18.05.37.1.55.14,1.57.42,3.2.74,4.86.93.17.02.34.04.5.06.19.02.39.04.58.06,1.58.17,3.21.26,4.91.26,27.39,0,43.28-18.2,48.4-27.19v26.9h6.13V25.15h-6.13ZM275.18,81.87c-1.44,0-2.86-.07-4.34-.23l-.21-.02c-.1,0-.2-.02-.29-.03h-.03s-.03,0-.03,0c-.11-.01-.22-.03-.33-.04h-.09c-1.39-.18-2.76-.44-4.09-.8-.1-.03-.2-.05-.3-.08-.05-.01-.1-.02-.15-.04-.05-.01-.09-.03-.13-.04-8.44-2.34-14.5-7.95-17.06-15.82l-.02-.06-.02-.06c-1.01-2.86-1.52-5.92-1.52-9.09,0-5.2,1.4-10.11,4.04-14.21l.02-.03.02-.03c2.32-3.71,5.56-6.6,9.62-8.61h.03s.03-.03.03-.03c3.36-1.71,7.09-2.71,11.09-2.97h.06s.06,0,.06,0c1.21-.11,2.44-.16,3.65-.16,28.15,0,42.35,21.15,44.53,26.17-2.19,5.02-16.44,26.18-44.53,26.18"/>
      <path class="cls-1" d="M202.39,33.78l-3.94,3.9v-13.76h-6.33v63.17h6.33v-29.19c0-16.55,12.42-29.04,28.89-29.04h4.24v-4.94h-4.24c-9.68,0-18.54,3.5-24.95,9.85"/>
      <polygon class="cls-1" points="65.64 120.84 68.06 120.84 68.06 130.45 66.86 130.45 66.86 120.9 64.39 130.45 61.9 130.45 59.43 120.9 59.43 130.45 58.23 130.45 58.23 120.84 60.64 120.84 63.14 130.4 65.64 120.84"/>
      <rect class="cls-1" x="73.99" y="120.84" width="1.2" height="9.61"/>
      <polygon class="cls-1" points="88.67 130.45 86.2 130.45 82.33 120.9 82.33 130.45 81.13 130.45 81.13 120.84 83.6 120.84 87.47 130.4 87.47 120.84 88.67 120.84 88.67 130.45"/>
      <path class="cls-1" d="M94.61,120.84h2.78c3.07,0,4.91,1.98,4.91,4.8s-1.84,4.81-4.91,4.81h-2.78v-9.61ZM95.81,121.84v7.6h1.44c2.37,0,3.75-1.34,3.75-3.8s-1.38-3.8-3.75-3.8h-1.44Z"/>
      <polygon class="cls-1" points="121.18 120.84 123.01 130.4 125.27 120.84 126.46 120.84 124.18 130.45 121.84 130.45 120.01 120.9 118.18 130.45 115.84 130.45 113.56 120.84 114.75 120.84 117.01 130.4 118.84 120.84 121.18 120.84"/>
      <polygon class="cls-1" points="138.5 120.84 138.5 130.45 137.3 130.45 137.3 126.05 132.73 126.05 132.73 130.45 131.52 130.45 131.52 120.84 132.73 120.84 132.73 125.05 137.3 125.05 137.3 120.84 138.5 120.84"/>
      <path class="cls-1" d="M146.53,120.84h2.48l3.25,9.61h-1.27l-.98-2.9h-4.49l-.98,2.9h-1.27l3.25-9.61ZM145.86,126.55h3.83l-1.91-5.65-1.91,5.65Z"/>
      <polygon class="cls-1" points="155.1 120.84 162.77 120.84 162.77 121.85 159.53 121.85 159.53 130.45 158.33 130.45 158.33 121.85 155.1 121.85 155.1 120.84"/>
      <polygon class="cls-1" points="177.04 130.45 175.84 130.45 175.84 126.19 172.25 120.84 173.61 120.84 176.44 125.06 179.27 120.84 180.63 120.84 177.04 126.19 177.04 130.45"/>
      <path class="cls-1" d="M204.39,120.84h1.2v5.78c0,2.73-1.33,3.97-3.56,3.97s-3.56-1.24-3.56-3.97v-5.78h1.2v5.99c0,1.67.68,2.76,2.36,2.76s2.36-1.09,2.36-2.76v-5.99Z"/>
      <path class="cls-1" d="M218.21,120.84h2.78c3.07,0,4.91,1.98,4.91,4.8s-1.84,4.81-4.91,4.81h-2.78v-9.61ZM219.41,121.84v7.6h1.44c2.37,0,3.75-1.34,3.75-3.8s-1.38-3.8-3.75-3.8h-1.44Z"/>
      <path class="cls-1" d="M231.25,120.84h2.99c2.33,0,3.7.99,3.7,2.77,0,1.36-.8,2.27-2.22,2.62l2.4,4.22h-1.38l-2.3-4.05h-1.98v4.05h-1.2v-9.61ZM232.45,121.84v3.55h1.93c1.49,0,2.26-.63,2.26-1.78s-.77-1.77-2.26-1.77h-1.93Z"/>
      <rect class="cls-1" x="243.39" y="120.84" width="1.2" height="9.61"/>
      <polygon class="cls-1" points="258.07 130.45 255.6 130.45 251.73 120.9 251.73 130.45 250.53 130.45 250.53 120.84 253 120.84 256.87 130.4 256.87 120.84 258.07 120.84 258.07 130.45"/>
      <polygon class="cls-1" points="265.2 125.52 265.2 130.45 264 130.45 264 120.84 265.2 120.84 265.2 125.35 269.42 120.84 271.01 120.84 266.71 125.44 271.48 130.45 269.89 130.45 265.2 125.52"/>
      <path class="cls-1" d="M193.07,127.14c.02-.22.04-.44.04-.67,0-4.42-3.65-6.78-4.36-6.78-.53,0-4.36,2.09-4.36,6.78,0,.19,0,.38.02.55.04.65.21,1.26.49,1.81.34.69.84,1.24,1.47,1.64.69.44,1.51.68,2.37.68.52,0,1.02-.08,1.5-.25,1.34-.44,2.29-1.46,2.68-2.88h0l.03-.08c.06-.21.1-.44.13-.67v-.08s.01-.07.01-.07ZM189.83,129.78c-.35.12-.72.18-1.11.18-.63,0-1.23-.17-1.68-.46v-.02s-.05-.02-.05-.02c-.45-.28-.79-.67-1.04-1.17-.21-.41-.33-.87-.36-1.37-.01-.15-.02-.3-.02-.46,0-3.31,2.37-5.13,3.17-5.54.8.41,3.17,2.23,3.17,5.54,0,.18,0,.36-.03.6v.07c-.03.16-.06.33-.1.49,0,.02-.01.05-.02.08-.28,1.02-.96,1.75-1.93,2.07"/>
    </g>
  </g>
</svg>