<?xml version="1.0" encoding="UTF-8"?>
<svg id="Capa_2" data-name="Capa 2" xmlns="http://www.w3.org/2000/svg" viewBox="0 0 143.19 99.93">
  <defs>
    <style>
      .cls-1 {
        fill: #132d15;
      }
    </style>
  </defs>
  <g id="Capa_1-2" data-name="Capa 1">
    <g>
      <g>
        <path class="cls-1" d="M49.93,95.82c0,.34-.01.65-.04.93-.03.28-.09.52-.18.71-.1.19-.24.35-.44.45-.19.11-.46.16-.8.16s-.6-.05-.8-.16c-.19-.11-.34-.26-.44-.45-.1-.19-.16-.43-.18-.71-.03-.28-.04-.59-.04-.93v-6.79h-2.3v6.48c0,.74.05,1.38.15,1.94.1.55.28,1.01.56,1.38.28.37.66.65,1.15.83.49.18,1.13.28,1.9.28s1.41-.09,1.9-.28c.49-.18.88-.46,1.15-.83.28-.37.46-.83.56-1.38.1-.55.15-1.2.15-1.94v-6.48h-2.3v6.79Z"/>
        <path class="cls-1" d="M57.52,89.03h-3.46v10.72h3.46c1.44,0,2.51-.46,3.21-1.38.7-.92,1.04-2.25,1.04-3.98s-.35-3.06-1.04-3.98c-.7-.92-1.77-1.38-3.21-1.38ZM59.34,95.36c0,.84-.16,1.48-.48,1.92-.32.44-.82.66-1.51.66h-1.03v-7.1h1.03c.69,0,1.19.22,1.51.66.32.44.48,1.08.48,1.9v1.95Z"/>
        <polygon class="cls-1" points="63.52 99.75 70.37 99.75 70.37 97.86 65.83 97.86 65.83 95.26 70.22 95.26 70.22 93.38 65.83 93.38 65.83 90.92 70.37 90.92 70.37 89.03 63.52 89.03 63.52 99.75"/>
        <path class="cls-1" d="M85.34,88.84c-1.43,0-2.49.49-3.17,1.46-.68.97-1.02,2.34-1.02,4.09s.34,3.11,1.02,4.09c.68.97,1.74,1.46,3.17,1.46s2.49-.49,3.17-1.46c.68-.97,1.02-2.33,1.02-4.09s-.34-3.11-1.02-4.09c-.68-.97-1.74-1.46-3.17-1.46ZM87.07,95.31c0,.87-.13,1.55-.38,2.04-.25.49-.7.73-1.36.73s-1.11-.24-1.36-.73c-.25-.49-.38-1.16-.38-2.02v-1.87c0-.86.13-1.53.38-2.02.25-.49.7-.73,1.36-.73s1.11.24,1.36.73c.25.49.38,1.16.38,2.02v1.86Z"/>
        <polygon class="cls-1" points="95.49 91.52 94.66 93.62 94.54 93.62 93.71 91.52 92.57 89.03 90.01 89.03 93.4 95.96 93.4 99.75 95.71 99.75 95.71 95.96 99.1 89.03 96.63 89.03 95.49 91.52"/>
        <polygon class="cls-1" points="102.48 97.86 107.47 91.04 107.47 89.03 100.05 89.03 100.05 90.92 104.89 90.92 99.9 97.74 99.9 99.75 107.63 99.75 107.63 97.86 102.48 97.86"/>
        <path class="cls-1" d="M42.3,93.82c.47-.4.74-1.08.74-1.88,0-.53-.12-1.03-.37-1.46-.25-.44-.64-.8-1.16-1.06-.52-.26-1.18-.39-1.96-.39h-3.99v10.73h2.03v-4.07h1.89c.46,0,.78.1.95.3.18.2.26.57.26,1.09v2.67h2.2v-2.66c0-.73-.18-1.3-.55-1.68-.33-.35-.99-.56-1.72-.57v-.35c.64-.05,1.2-.28,1.67-.68ZM37.6,90.93h1.63c.55,0,.96.12,1.24.37.28.24.41.56.41.95,0,.46-.14.85-.41,1.14-.27.29-.68.44-1.21.44h-1.66v-2.89Z"/>
        <path class="cls-1" d="M78.8,94.89c-.34-.18-.69-.28-1.05-.3v-.35c.31-.03.62-.13.92-.29.37-.19.67-.46.9-.8.23-.34.35-.74.35-1.16,0-.54-.12-1.03-.37-1.47-.25-.44-.64-.8-1.16-1.06-.52-.26-1.18-.39-1.96-.39h-3.87s0,5.84,0,5.84h0v4.88h3.99c.78,0,1.44-.13,1.96-.39.52-.26.91-.62,1.16-1.06.25-.44.37-.93.37-1.47,0-.43-.12-.82-.35-1.16-.23-.34-.54-.61-.9-.8ZM74.61,90.97h1.51c.56,0,.98.11,1.25.32.27.21.4.51.4.91,0,.44-.13.79-.39,1.04-.26.25-.67.37-1.23.37h-1.54v-2.64ZM77.49,97.55c-.27.22-.69.32-1.25.32h-1.63v-2.64h1.66c.56,0,.97.13,1.23.37.26.25.39.6.39,1.04,0,.39-.13.69-.4.91Z"/>
      </g>
      <g>
        <g>
          <path class="cls-1" d="M40.03,80.05C17.96,80.05,0,62.1,0,40.03S17.96,0,40.03,0s40.03,17.96,40.03,40.03-17.96,40.03-40.03,40.03ZM40.03,3.57C19.93,3.57,3.57,19.93,3.57,40.03s16.35,36.46,36.46,36.46,36.46-16.35,36.46-36.46S60.13,3.57,40.03,3.57Z"/>
          <path class="cls-1" d="M103.17,80.05c-22.07,0-40.03-17.96-40.03-40.03S81.1,0,103.17,0s40.03,17.96,40.03,40.03-17.96,40.03-40.03,40.03ZM103.17,3.57c-20.1,0-36.46,16.35-36.46,36.46s16.35,36.46,36.46,36.46,36.46-16.35,36.46-36.46S123.27,3.57,103.17,3.57Z"/>
        </g>
        <path class="cls-1" d="M115.97,38.5v-12.46h-4.01v-5.17h-22.11v38.32h22.11v-5.17h4.01v-12.46h-4.01v-3.05h4.01ZM109.91,36.38h-14.01v-8.22h14.01v8.22ZM109.91,51.41h-14.01v-8.22h14.01v8.22Z"/>
        <path class="cls-1" d="M52.25,38.5v-12.46h-4.15v-5.17h-22.79v38.32h6.2v-16h14.54v16h6.2v-17.7h-4.15v-2.99h4.15ZM31.5,36.38v-8.22h14.54v8.22h-14.54Z"/>
      </g>
    </g>
  </g>
</svg>