<?xml version="1.0" encoding="UTF-8"?>
<svg id="Capa_2" data-name="Capa 2" xmlns="http://www.w3.org/2000/svg" viewBox="0 0 127.51 254.72">
  <defs>
    <style>
      .cls-1 {
        fill: #132d15;
      }
    </style>
  </defs>
  <g id="Capa_1-2" data-name="Capa 1">
    <g>
      <g>
        <g>
          <polygon class="cls-1" points="58.77 0 58.77 19.42 19.68 19.42 29.57 0 58.77 0"/>
          <path class="cls-1" d="M19.59,29.39h39.18v19.42c0,8.12-3.29,15.47-8.61,20.79-5.32,5.32-12.67,8.61-20.79,8.61H0v-19.42h29.37c5.51,0,9.98-4.47,9.98-9.98H0V0h19.59v29.39Z"/>
        </g>
        <polygon class="cls-1" points="98.03 19.42 97.95 19.59 97.95 19.42 98.03 19.42"/>
        <polygon class="cls-1" points="19.68 19.42 19.59 19.59 19.59 19.42 19.68 19.42"/>
        <polygon class="cls-1" points="127.51 0 127.51 78.21 107.92 78.21 107.92 48.81 88.33 48.81 88.33 78.21 68.74 78.21 68.74 48.99 68.74 48.99 68.74 29.39 68.74 29.39 68.74 0 88.33 0 88.33 19.59 88.25 29.39 107.92 29.39 107.92 19.42 88.42 19.42 98.31 0 127.51 0"/>
      </g>
      <g>
        <g>
          <polygon class="cls-1" points="19.59 88.19 19.59 166.53 0 166.4 0 88.19 19.59 88.19"/>
          <rect class="cls-1" y="117.58" width="19.59" height="19.42"/>
          <path class="cls-1" d="M58.77,88.19v19.42c0,7.57-2.87,14.48-7.57,19.69-.34.38-.69.74-1.04,1.1-5.32,5.32-12.67,8.61-20.79,8.61h-9.69l9.89-19.42c-.06,0-.13,0-.2,0h-.17c5.51,0,9.98-4.47,9.98-9.98v-19.42h19.59Z"/>
          <rect class="cls-1" y="117.58" width="19.59" height="19.42"/>
          <path class="cls-1" d="M58.77,146.98v19.42h-19.59v-19.42c0-5.51-4.47-9.98-9.98-9.98h-9.53l9.89-19.42c8.04.05,15.32,3.33,20.59,8.61.36.36.71.73,1.04,1.1,4.7,5.21,7.57,12.11,7.57,19.68Z"/>
        </g>
        <path class="cls-1" d="M127.51,88.19v48.81c0,16.26-13.18,29.43-29.43,29.43h-.1l-9.65-19.45h9.61c5.51,0,9.98-4.47,9.98-9.98v-48.81h19.59Z"/>
        <polygon class="cls-1" points="19.68 127.03 19.59 127.2 19.59 127.03 19.68 127.03"/>
        <polygon class="cls-1" points="88.34 88.19 88.34 166.4 68.75 166.4 68.75 107.78 68.75 107.78 68.74 88.19 88.34 88.19"/>
      </g>
      <g>
        <polygon class="cls-1" points="98.04 195.79 97.95 195.97 97.95 195.79 98.04 195.79"/>
        <g>
          <path class="cls-1" d="M29.57,176.38l-9.89,19.42h19.5c0,2.75-1.12,5.25-2.92,7.06-1.8,1.8-4.3,2.92-7.05,2.92h.16c8.12,0,15.47,3.29,20.79,8.61.36.36.71.73,1.04,1.1,4.71-5.21,7.57-12.11,7.57-19.69v-19.42h-29.2ZM0,205.77h19.59v-29.39H0v29.39Z"/>
          <polygon class="cls-1" points="19.68 195.79 19.59 195.97 19.59 195.79 19.68 195.79"/>
          <path class="cls-1" d="M58.77,235.17v19.42h-19.59v-19.42c0-5.51-4.47-9.97-9.97-9.98h-9.62v29.53l-19.59-.13v-29.23h0v-19.59h29.37c8.12,0,15.47,3.29,20.79,8.61.36.36.71.73,1.04,1.1,4.71,5.22,7.57,12.12,7.57,19.69Z"/>
        </g>
        <polygon class="cls-1" points="127.51 176.38 127.51 254.59 107.93 254.59 107.93 225.19 88.34 225.19 88.34 254.59 68.75 254.59 68.75 225.28 68.75 225.28 68.75 205.69 68.75 205.69 68.75 176.38 88.34 176.38 88.34 195.97 88.25 205.77 107.93 205.77 107.93 195.79 88.42 195.79 98.31 176.38 127.51 176.38"/>
      </g>
    </g>
  </g>
</svg>