<?xml version="1.0" encoding="UTF-8"?>
<svg id="Capa_2" data-name="Capa 2" xmlns="http://www.w3.org/2000/svg" viewBox="0 0 362.73 63.45">
  <defs>
    <style>
      .cls-1 {
        fill: #132d15;
      }
    </style>
  </defs>
  <g id="Capa_1-2" data-name="Capa 1">
    <g>
      <g>
        <path class="cls-1" d="M354.88,35.7c-3.62,0-6.56-2.94-6.56-6.56s2.94-6.56,6.56-6.56,6.56,2.94,6.56,6.56-2.94,6.56-6.56,6.56h0ZM360.43,23.59c-1.48-1.48-3.45-2.3-5.55-2.3s-4.07.82-5.55,2.3c-1.48,1.48-2.3,3.45-2.3,5.55s.82,4.07,2.3,5.55c1.48,1.48,3.45,2.3,5.55,2.3s4.07-.82,5.55-2.3c1.48-1.48,2.3-3.45,2.3-5.55s-.82-4.07-2.3-5.55h0Z"/>
        <path class="cls-1" d="M354.8,28.79h-1.51v-2.99c.34-.04.77-.05,1.29-.05,1.62,0,2.43.51,2.43,1.52s-.74,1.53-2.22,1.53h0ZM356.68,29.34c1.02-.44,1.53-1.16,1.53-2.15,0-.75-.33-1.35-.98-1.79-.65-.44-1.54-.66-2.65-.66-.74,0-1.59.08-2.53.24v8.55h1.24v-3.78h1.57c1.27,0,2.08,1.26,2.43,3.78h1.24c-.21-1.31-.45-2.26-.72-2.85-.27-.58-.64-1.03-1.13-1.33h0Z"/>
      </g>
      <g>
        <polygon class="cls-1" points="162.56 23.2 183.05 2.02 173.35 2.02 152.92 23.99 173.28 44.32 183.39 44.32 162.56 23.2"/>
        <path class="cls-1" d="M230.16,1.96v42.35h-7.73l-23.27-31.58v31.58h-7.73V1.96h7.73l23.27,31.52V1.96h7.73Z"/>
        <path class="cls-1" d="M282.28,2.02h8.21l9.77,34.44,10.58-34.44h8.68l9.84,34.26,9.84-34.26h8.28l-13.98,42.29h-8.75l-9.91-32.01-10.52,32.01-8.68.06-13.37-42.35Z"/>
        <path class="cls-1" d="M274.6,28.08l-13.2-5.55,13.18-5.55h.03c1.72-.79,2.59-1.87,2.59-3.23,0-.69-.19-1.36-.57-2.03-.69-1.28-1.69-1.94-2.96-1.94-.96,0-1.83.33-2.6.99l-11.45,8.68,1.77-14.24c.18-1.23-.04-2.27-.68-3.1-.64-.83-1.6-1.25-2.86-1.25s-2.23.42-2.87,1.25c-.64.84-.86,1.9-.67,3.11l1.77,14.22-11.44-8.67c-.78-.66-1.66-1-2.61-1-1.28,0-2.27.64-2.93,1.88-.41.71-.6,1.39-.6,2.09,0,1.37.89,2.46,2.66,3.25l13.14,5.53-13.22,5.56c-1.72.67-2.59,1.76-2.59,3.22,0,.69.19,1.37.57,2.02.69,1.29,1.69,1.94,2.97,1.94.96,0,1.84-.33,2.6-1l11.45-8.67-1.77,14.23c-.18,1.23.04,2.28.67,3.09.63.84,1.6,1.26,2.87,1.26s2.23-.42,2.87-1.26c.63-.83.85-1.89.66-3.11l-1.76-14.22,11.44,8.67c.78.66,1.66,1,2.62,1,1.27,0,2.26-.64,2.93-1.88.4-.71.6-1.39.6-2.08,0-1.46-.89-2.55-2.61-3.23Z"/>
        <g>
          <path class="cls-1" d="M53.63.57c2.16.25,3.43,1.52,3.81,3.81.38,2.28-.21,5.36-1.76,9.23-1.56,3.87-3.98,8.15-7.28,12.85-3.68,5.39-8.12,10.91-13.32,16.56-4.89,5.33-10.09,10.12-15.61,14.37-4.69,3.46-9.88,6.85-15.98,5.91-1.2-.18-2.5-.61-3.07-1.68-1.79-3.36,2.66-5.7,5.39-5.02,1.57.39,2.93,1.34,4.48,1.77,1.59.45,3.35.13,4.9-.31,2.22-.63,4.44-1.87,6.66-3.71l2.66-2.28c1.39-1.27,3.74-3.52,7.04-6.76,0-.13-.02-.4-.05-.81-.03-.41-.06-1.05-.09-1.9-.03-.86-.05-1.73-.05-2.62-.13-7.17-.51-13.39-1.14-18.65-.89-6.03-1.84-10.23-2.86-12.61-1.02-2.38-2.35-3.63-4-3.76-2.47-.25-4.44,1.24-5.9,4.47,1.33-5.14,3.68-7.96,7.04-8.47,3.74-.63,6.63.62,8.66,3.76,2.03,3.14,3.46,8.39,4.28,15.75.89,8.57,1.24,14.31,1.05,17.23,3.55-4.06,6.19-7.26,7.9-9.61,2.98-4.38,4.79-7.39,5.42-9.04,1.84-4.57,1.84-8.09,0-10.56-.25-.32-.56-.71-.9-1.19-.35-.48-.62-.86-.81-1.14-.19-.29-.37-.65-.52-1.09-.16-.44-.24-.92-.24-1.43.06-.89.48-1.67,1.24-2.33.76-.67,1.77-.9,3.05-.71Z"/>
          <path class="cls-1" d="M82.66.67C87.92-.67,92.14,0,95.32,2.66c3.24,2.66,4.72,6.6,4.47,11.8-.06,5.46-1.56,10.77-4.47,15.94-2.92,5.17-6.65,9.2-11.18,12.09-4.54,2.89-8.99,3.89-13.37,3-2.6-.38-4.71-1.39-6.33-3.05-1.62-1.65-2.66-3.63-3.14-5.95-.48-2.32-.6-4.74-.38-7.28.22-2.54.74-5.04,1.57-7.52,2.28-6.72,5.27-11.67,8.95-14.85,3.74-3.24,7.49-5.3,11.23-6.19ZM83.42,1.52c-2.54,1.14-5.01,3.71-7.42,7.71-2.35,3.87-4.25,8.28-5.71,13.23-1.27,5.27-1.87,10.15-1.81,14.66.13,2.47.74,4.41,1.86,5.81,1.11,1.4,2.65,2.06,4.62,2,2.47,0,5-1.63,7.57-4.9,2.57-3.27,4.73-7.28,6.47-12.04,1.74-4.76,2.87-9.42,3.38-13.99.82-5.39.22-9.17-1.81-11.33-1.97-2.22-4.35-2.6-7.14-1.14Z"/>
          <path class="cls-1" d="M117.78,4.28c-.44-.25-1.59.35-3.43,1.81-1.9,1.59-3.88,3.83-3.86,3.47.1-1.78,4.24-5.38,6.33-6.9,1.84-1.27,3.43-1.9,4.76-1.9,2.03,0,3.3.84,3.81,2.52.51,1.68.25,3.85-.76,6.52-1.52,3.81-3.74,9.58-6.66,17.32-1.02,2.73-1.71,4.85-2.09,6.38-.38,1.52-.48,2.87-.29,4.04.19,1.18.76,2.08,1.71,2.71,6.9,3.69,18.09-12.59,19.11-14.62,0,2.03,1.17,3.47-2.03,6.1-3.21,2.63-8.14,14.24-20.59,13.18-6.36-.54-7.52-6.88-3.71-17.23l6.95-18.18c1.33-3.24,1.58-4.98.76-5.23ZM153.09,1.62l-13.7,35.88c-.95,2.41-1.11,3.74-.48,4,.57.19,1.75-.41,3.52-1.81,1.88-1.5,3.23-2.75,3.26-2.78.07-.06.3.03.35.09.23.26-.27.75-.41.93-.66.84-1.38,1.65-2.13,2.42-1.49,1.53-3.17,2.9-5.08,3.87-1.15.59-2.42,1.03-3.71.96-1.55-.09-2.77-.98-3.37-2.39-.67-1.55-.59-3.44.24-5.66L145.47,1.62h7.61Z"/>
        </g>
      </g>
    </g>
  </g>
</svg>