<?xml version="1.0" encoding="UTF-8"?>
<svg id="Capa_2" data-name="Capa 2" xmlns="http://www.w3.org/2000/svg" viewBox="0 0 816.57 188.42">
  <defs>
    <style>
      .cls-1 {
        fill: #132d15;
      }
    </style>
  </defs>
  <g id="Capa_1-2" data-name="Capa 1">
    <g>
      <g>
        <path class="cls-1" d="M192.69,111.66c8.42,49.35-46.21,66.84-82.16,72.97-32.82,5.6-98.35,10.08-104.42-25.54-1.93-11.31,2.94-22.05,14.04-23.95,23.65-4.03,33.66,29.93,90.85,20.18,17.86-3.04,48.41-11.72,46.19-24.72C152.46,102.91,14.04,150.3.86,73.03-7.1,26.32,41.89,9.3,78.32,3.09c53.08-9.05,94,2.3,98.31,27.58,1.77,10.35-3.03,21.57-18.47,24.21-28.71,4.9-26.02-31.73-79.59-22.6-18.1,3.09-35.74,10.31-33.85,21.38,5.25,30.81,134.9-18.54,147.95,58.01Z"/>
        <path class="cls-1" d="M366.17,117.11h-91.71v71.17h-53.9V12.3C220.55,5.52,226.04.02,232.82.02h41.91v76.54h91.44V.02h54.17v175.97c0,6.78-5.49,12.28-12.26,12.28h-41.91v-71.17Z"/>
        <path class="cls-1" d="M459.55.02h41.42v176.03c0,6.75-5.47,12.23-12.21,12.23h-41.42V12.25c0-6.75,5.47-12.23,12.21-12.23Z"/>
        <path class="cls-1" d="M650.86,188.27h-41.96l-.27-149.64h-79.91V12.23c0-6.74,5.47-12.21,12.21-12.21h202.06v38.62h-79.91v137.43c0,6.74-5.47,12.21-12.21,12.21Z"/>
      </g>
      <g>
        <path class="cls-1" d="M806.93,17.71c-4.44,0-8.05-3.61-8.05-8.05s3.61-8.05,8.05-8.05,8.05,3.61,8.05,8.05-3.61,8.05-8.05,8.05h0ZM813.74,2.84c-1.82-1.82-4.24-2.82-6.82-2.82s-5,1-6.82,2.82c-1.82,1.82-2.82,4.24-2.82,6.82s1,5,2.82,6.82c1.82,1.82,4.24,2.82,6.82,2.82s5-1,6.82-2.82c1.82-1.82,2.82-4.24,2.82-6.82s-1-5-2.82-6.82h0Z"/>
        <path class="cls-1" d="M806.83,9.23h-1.85s0-3.68,0-3.68c.42-.04.95-.07,1.59-.07,1.99,0,2.99.62,2.99,1.86s-.91,1.88-2.72,1.88h0ZM809.14,9.91c1.25-.54,1.88-1.42,1.88-2.65,0-.93-.4-1.66-1.2-2.2-.8-.54-1.89-.81-3.25-.81-.91,0-1.95.1-3.11.29v10.5h1.52v-4.64s1.93,0,1.93,0c1.56,0,2.55,1.55,2.99,4.64h1.52c-.26-1.61-.55-2.78-.88-3.5-.33-.72-.79-1.26-1.38-1.64h0Z"/>
      </g>
      <g>
        <path class="cls-1" d="M770.47,188.27v-10.65h38.07v-30.91h8.02v41.43l-46.1.13Z"/>
        <path class="cls-1" d="M806.24,104.69l.07,22.82,10.26,4.87v10.13l-46.23-22.69v-8.68l46.23-21.7v10.46l-10.32,4.8ZM781.58,116l17.23,8.15v-16.18l-17.23,7.96v.07Z"/>
        <path class="cls-1" d="M816.57,55.76v26.83l-46.1-.13v-25.91c0-10.98,5.72-17.75,12.69-17.75,5.26,0,8.48,3.75,9.99,7.89,0,0,.07-.07.13,0,.72-4.14,5.59-8.42,10.59-8.42,7.83,0,12.69,8.29,12.69,17.49ZM777.77,57.41v14.86h12.36l.07-14.01c0-5.92-2.83-9.73-6.31-9.73-3.29,0-6.25,2.96-6.12,8.88ZM796.97,57.67v14.6h12.36v-14.01c0-5.92-2.56-9.47-5.92-9.47s-6.44,2.96-6.44,8.88Z"/>
      </g>
    </g>
  </g>
</svg>